<svg width="537" height="320" viewBox="0 0 537 320" fill="none" xmlns="http://www.w3.org/2000/svg">
<g clip-path="url(#clip0_3262_42763)">
<rect x="1" y="-189.877" width="535" height="570.263" fill="white" stroke="#EEF0F3"/>
<line x1="1" y1="-190.377" x2="1.00002" y2="380.886" stroke="#EEF0F3"/>
<line x1="168.5" y1="-190.377" x2="168.5" y2="380.886" stroke="#EEF0F3"/>
<line x1="336" y1="-190.377" x2="336" y2="380.886" stroke="#EEF0F3"/>
<line x1="503.5" y1="-190.377" x2="503.5" y2="380.886" stroke="#EEF0F3"/>
<line x1="34.5" y1="-190.377" x2="34.5" y2="380.886" stroke="#EEF0F3"/>
<line x1="202" y1="-190.377" x2="202" y2="380.886" stroke="#EEF0F3"/>
<line x1="369.5" y1="-190.377" x2="369.5" y2="380.886" stroke="#EEF0F3"/>
<line x1="135" y1="-190.377" x2="135" y2="380.886" stroke="#EEF0F3"/>
<line x1="302.5" y1="-190.377" x2="302.5" y2="380.886" stroke="#EEF0F3"/>
<line x1="470" y1="-190.377" x2="470" y2="380.886" stroke="#EEF0F3"/>
<line x1="101.5" y1="-190.377" x2="101.5" y2="380.886" stroke="#EEF0F3"/>
<line x1="269" y1="-190.377" x2="269" y2="380.886" stroke="#EEF0F3"/>
<line x1="436.5" y1="-190.377" x2="436.5" y2="380.886" stroke="#EEF0F3"/>
<line x1="68" y1="-190.377" x2="68" y2="380.886" stroke="#EEF0F3"/>
<line x1="235.5" y1="-190.377" x2="235.5" y2="380.886" stroke="#EEF0F3"/>
<line x1="403" y1="-190.377" x2="403" y2="380.886" stroke="#EEF0F3"/>
<line x1="0.5" y1="42.4473" x2="536.5" y2="42.4473" stroke="#EEF0F3"/>
<line x1="0.5" y1="109.449" x2="536.5" y2="109.449" stroke="#EEF0F3"/>
<line x1="0.5" y1="176.449" x2="536.5" y2="176.449" stroke="#EEF0F3"/>
<line x1="0.5" y1="243.447" x2="536.5" y2="243.447" stroke="#EEF0F3"/>
<line x1="0.5" y1="310.447" x2="536.5" y2="310.447" stroke="#EEF0F3"/>
<line x1="0.5" y1="8.94727" x2="536.5" y2="8.94727" stroke="#EEF0F3"/>
<line x1="0.5" y1="75.9473" x2="536.5" y2="75.9473" stroke="#EEF0F3"/>
<line x1="0.5" y1="142.947" x2="536.5" y2="142.947" stroke="#EEF0F3"/>
<line x1="0.5" y1="209.947" x2="536.5" y2="209.947" stroke="#EEF0F3"/>
<line x1="0.5" y1="276.949" x2="536.5" y2="276.949" stroke="#EEF0F3"/>
<g filter="url(#filter0_d_3262_42763)">
<rect x="176.5" y="72.9375" width="184" height="173" rx="2" fill="#FAF9F8"/>
<rect x="177" y="73.4375" width="183" height="172" rx="1.5" stroke="#E6E8EB"/>
</g>
<rect x="183.531" y="79.9688" width="169.705" height="142.046" rx="2" fill="black"/>
<path d="M279.285 159.969L289.848 178.481H268.51L257.836 159.969H279.285Z" fill="url(#paint0_linear_3262_42763)"/>
<path d="M289.842 178.483L300.499 159.971L279.167 122.938H257.836L289.842 178.483Z" fill="#FF414C"/>
<path d="M247.166 141.445H268.497L247.175 178.479L236.5 159.967L247.166 141.445Z" fill="#FF414C"/>
<path d="M195.027 96.0206C194.65 96.0206 194.318 95.9514 194.03 95.8128C193.747 95.6687 193.528 95.4636 193.373 95.1976C193.223 94.926 193.148 94.6101 193.148 94.2499V93.0528C193.148 92.687 193.223 92.3711 193.373 92.105C193.528 91.839 193.747 91.6367 194.03 91.4982C194.318 91.3541 194.65 91.282 195.027 91.282C195.576 91.282 196.017 91.4261 196.349 91.7143C196.682 92.0025 196.856 92.396 196.873 92.8948H195.975C195.958 92.6343 195.867 92.432 195.701 92.2879C195.534 92.1438 195.31 92.0718 195.027 92.0718C194.722 92.0718 194.481 92.1577 194.304 92.3295C194.127 92.4958 194.038 92.7341 194.038 93.0445V94.2499C194.038 94.5603 194.127 94.8013 194.304 94.9732C194.481 95.145 194.722 95.2309 195.027 95.2309C195.31 95.2309 195.534 95.1588 195.701 95.0147C195.867 94.8706 195.958 94.6683 195.975 94.4078H196.873C196.856 94.9066 196.682 95.3001 196.349 95.5883C196.017 95.8765 195.576 96.0206 195.027 96.0206ZM200.145 96.0123C199.768 96.0123 199.441 95.9403 199.164 95.7962C198.887 95.6521 198.674 95.447 198.524 95.181C198.374 94.915 198.299 94.6018 198.299 94.2416V93.0611C198.299 92.6953 198.374 92.3822 198.524 92.1217C198.674 91.8556 198.887 91.6506 199.164 91.5065C199.441 91.3624 199.768 91.2903 200.145 91.2903C200.522 91.2903 200.849 91.3624 201.126 91.5065C201.403 91.6506 201.617 91.8556 201.766 92.1217C201.916 92.3822 201.991 92.6953 201.991 93.0611V94.2416C201.991 94.6018 201.916 94.915 201.766 95.181C201.617 95.447 201.403 95.6521 201.126 95.7962C200.849 95.9403 200.522 96.0123 200.145 96.0123ZM200.145 95.2226C200.45 95.2226 200.685 95.1394 200.852 94.9732C201.018 94.8013 201.101 94.5575 201.101 94.2416V93.0611C201.101 92.7396 201.018 92.4958 200.852 92.3295C200.685 92.1632 200.45 92.0801 200.145 92.0801C199.846 92.0801 199.61 92.1632 199.438 92.3295C199.272 92.4958 199.189 92.7396 199.189 93.0611V94.2416C199.189 94.5575 199.272 94.8013 199.438 94.9732C199.61 95.1394 199.846 95.2226 200.145 95.2226ZM203.5 95.9375V91.3652H204.39V92.2381H204.606L204.39 92.4459C204.39 92.0801 204.498 91.7947 204.714 91.5896C204.93 91.3846 205.23 91.282 205.612 91.282C206.066 91.282 206.429 91.4289 206.701 91.7226C206.973 92.0108 207.108 92.4016 207.108 92.8948V95.9375H206.211V92.9946C206.211 92.6953 206.13 92.4653 205.969 92.3046C205.809 92.1438 205.59 92.0635 205.313 92.0635C205.03 92.0635 204.806 92.1494 204.639 92.3212C204.479 92.4875 204.398 92.7313 204.398 93.0528V95.9375H203.5ZM210.289 96.0123C209.962 96.0123 209.674 95.9597 209.425 95.8544C209.181 95.7491 208.987 95.605 208.843 95.4221C208.704 95.2336 208.624 95.0119 208.602 94.757H209.499C209.522 94.9066 209.602 95.0286 209.74 95.1228C209.879 95.2115 210.062 95.2558 210.289 95.2558H210.647C210.918 95.2558 211.123 95.2004 211.262 95.0895C211.4 94.9787 211.47 94.8318 211.47 94.6489C211.47 94.4716 211.406 94.333 211.278 94.2333C211.157 94.128 210.974 94.0587 210.73 94.0254L210.14 93.934C209.652 93.8564 209.292 93.7178 209.059 93.5183C208.832 93.3133 208.718 93.0112 208.718 92.6122C208.718 92.1909 208.854 91.8667 209.125 91.6395C209.402 91.4067 209.81 91.2903 210.347 91.2903H210.663C211.14 91.2903 211.52 91.4012 211.802 91.6229C212.09 91.839 212.254 92.13 212.293 92.4958H211.395C211.373 92.3628 211.298 92.2547 211.17 92.1715C211.048 92.0884 210.879 92.0468 210.663 92.0468H210.347C210.087 92.0468 209.896 92.0967 209.774 92.1965C209.657 92.2907 209.599 92.432 209.599 92.6205C209.599 92.7867 209.652 92.9114 209.757 92.9946C209.862 93.0777 210.026 93.1359 210.248 93.1692L210.854 93.2689C211.37 93.341 211.747 93.4851 211.985 93.7012C212.229 93.9118 212.351 94.2194 212.351 94.624C212.351 95.0618 212.207 95.4027 211.919 95.6465C211.636 95.8904 211.212 96.0123 210.647 96.0123H210.289ZM215.598 96.0123C215.221 96.0123 214.894 95.9403 214.617 95.7962C214.34 95.6521 214.127 95.447 213.977 95.181C213.827 94.915 213.753 94.6018 213.753 94.2416V93.0611C213.753 92.6953 213.827 92.3822 213.977 92.1217C214.127 91.8556 214.34 91.6506 214.617 91.5065C214.894 91.3624 215.221 91.2903 215.598 91.2903C215.975 91.2903 216.302 91.3624 216.579 91.5065C216.856 91.6506 217.07 91.8556 217.219 92.1217C217.369 92.3822 217.444 92.6953 217.444 93.0611V94.2416C217.444 94.6018 217.369 94.915 217.219 95.181C217.07 95.447 216.856 95.6521 216.579 95.7962C216.302 95.9403 215.975 96.0123 215.598 96.0123ZM215.598 95.2226C215.903 95.2226 216.139 95.1394 216.305 94.9732C216.471 94.8013 216.554 94.5575 216.554 94.2416V93.0611C216.554 92.7396 216.471 92.4958 216.305 92.3295C216.139 92.1632 215.903 92.0801 215.598 92.0801C215.299 92.0801 215.063 92.1632 214.892 92.3295C214.725 92.4958 214.642 92.7396 214.642 93.0611V94.2416C214.642 94.5575 214.725 94.8013 214.892 94.9732C215.063 95.1394 215.299 95.2226 215.598 95.2226ZM221.406 95.9375C221.123 95.9375 220.877 95.8821 220.666 95.7712C220.455 95.6548 220.289 95.4913 220.167 95.2807C220.051 95.0701 219.993 94.8263 219.993 94.5492V90.6835H218.496V89.8687H220.891V94.5492C220.891 94.7265 220.94 94.8678 221.04 94.9732C221.14 95.0729 221.276 95.1228 221.448 95.1228H222.861V95.9375H221.406ZM225.9 96.0206C225.529 96.0206 225.202 95.9486 224.919 95.8045C224.642 95.6548 224.429 95.447 224.279 95.181C224.129 94.915 224.055 94.6046 224.055 94.2499V93.0528C224.055 92.6925 224.129 92.3822 224.279 92.1217C224.429 91.8556 224.642 91.6506 224.919 91.5065C225.202 91.3568 225.529 91.282 225.9 91.282C226.277 91.282 226.604 91.3568 226.881 91.5065C227.158 91.6506 227.372 91.8556 227.521 92.1217C227.671 92.3822 227.746 92.6925 227.746 93.0528V93.8675H224.919V94.2499C224.919 94.588 225.002 94.8457 225.169 95.023C225.34 95.2004 225.587 95.2891 225.909 95.2891C226.169 95.2891 226.38 95.2447 226.54 95.156C226.701 95.0618 226.801 94.926 226.84 94.7487H227.729C227.663 95.1366 227.463 95.447 227.131 95.6798C226.798 95.907 226.388 96.0206 225.9 96.0206ZM226.881 93.3271V93.0445C226.881 92.7119 226.798 92.4542 226.632 92.2713C226.466 92.0884 226.222 91.997 225.9 91.997C225.584 91.997 225.34 92.0884 225.169 92.2713C225.002 92.4542 224.919 92.7147 224.919 93.0528V93.2606L226.948 93.2523L226.881 93.3271Z" fill="white"/>
<rect x="184.031" y="227.438" width="11.637" height="11.5005" rx="1.5" fill="#F2F2F2" stroke="#E6E8EB"/>
<rect x="199.195" y="227.438" width="11.637" height="11.5005" rx="1.5" fill="#F2F2F2" stroke="#E6E8EB"/>
<rect x="214.992" y="227.438" width="11.637" height="11.5005" rx="1.5" fill="#F2F2F2" stroke="#E6E8EB"/>
<rect x="230.789" y="227.438" width="11.637" height="11.5005" rx="1.5" fill="#F2F2F2" stroke="#E6E8EB"/>
<rect x="293.969" y="227.438" width="11.637" height="11.5005" rx="1.5" fill="#F2F2F2" stroke="#E6E8EB"/>
<rect x="246.578" y="227.438" width="11.637" height="11.5005" rx="1.5" fill="#F2F2F2" stroke="#E6E8EB"/>
<rect x="309.766" y="227.438" width="11.637" height="11.5005" rx="1.5" fill="#F2F2F2" stroke="#E6E8EB"/>
<rect x="262.383" y="227.438" width="11.637" height="11.5005" rx="1.5" fill="#F2F2F2" stroke="#E6E8EB"/>
<rect x="325.562" y="227.438" width="11.637" height="11.5005" rx="1.5" fill="#F2F2F2" stroke="#E6E8EB"/>
<rect x="278.172" y="227.438" width="11.637" height="11.5005" rx="1.5" fill="#F2F2F2" stroke="#E6E8EB"/>
<rect x="341.359" y="227.438" width="11.637" height="11.5005" rx="1.5" fill="#F2F2F2" stroke="#E6E8EB"/>
</g>
<rect x="0.5" y="0.5" width="535.5" height="319" rx="5.5" stroke="#E6E8EB"/>
<defs>
<filter id="filter0_d_3262_42763" x="156.5" y="62.9375" width="224" height="213" filterUnits="userSpaceOnUse" color-interpolation-filters="sRGB">
<feFlood flood-opacity="0" result="BackgroundImageFix"/>
<feColorMatrix in="SourceAlpha" type="matrix" values="0 0 0 0 0 0 0 0 0 0 0 0 0 0 0 0 0 0 127 0" result="hardAlpha"/>
<feOffset dy="10"/>
<feGaussianBlur stdDeviation="10"/>
<feComposite in2="hardAlpha" operator="out"/>
<feColorMatrix type="matrix" values="0 0 0 0 0 0 0 0 0 0 0 0 0 0 0 0 0 0 0.1 0"/>
<feBlend mode="normal" in2="BackgroundImageFix" result="effect1_dropShadow_3262_42763"/>
<feBlend mode="normal" in="SourceGraphic" in2="effect1_dropShadow_3262_42763" result="shape"/>
</filter>
<linearGradient id="paint0_linear_3262_42763" x1="277.152" y1="172.769" x2="284.968" y2="163.389" gradientUnits="userSpaceOnUse">
<stop stop-color="#FF414C"/>
<stop offset="1" stop-color="#FF414C" stop-opacity="0"/>
</linearGradient>
<clipPath id="clip0_3262_42763">
<rect width="536.5" height="320" rx="6" fill="white"/>
</clipPath>
</defs>
</svg>
