<svg width="344" height="201" viewBox="0 0 344 201" fill="none" xmlns="http://www.w3.org/2000/svg">
<rect x="0.5" y="0.905273" width="343" height="200" rx="8" fill="#1C1C1C"/>
<path d="M203 107.595C203 125.807 188.015 140.595 169.5 140.595C150.985 140.595 136 125.807 136 107.595C136 89.3835 150.985 74.5952 169.5 74.5952C188.015 74.5952 203 89.3835 203 107.595Z" stroke="#EDEDED" stroke-width="2"/>
<circle cx="179" cy="88.5952" r="4" fill="#EDEDED" stroke="#EDEDED" stroke-width="2"/>
<circle cx="188" cy="94.5952" r="2" fill="#EDEDED" stroke="#EDEDED" stroke-width="2"/>
<path d="M198 108.348C198 114.019 194.854 120.845 189.638 126.279C184.437 131.698 177.308 135.595 169.5 135.595C161.113 135.595 153.296 130.925 147.946 125.218C145.278 122.372 143.266 119.311 142.122 116.522C140.976 113.732 140.766 111.384 141.399 109.793C142.09 108.642 143.013 108.142 144.292 107.958C145.683 107.757 147.402 107.944 149.603 108.182L149.624 108.184C153.967 108.654 159.686 109.248 166.377 106.522C172.645 103.969 180.732 103.105 187.247 103.657C190.507 103.934 193.296 104.559 195.237 105.453C197.238 106.374 198 107.404 198 108.348Z" stroke="#EDEDED" stroke-width="2"/>
<path d="M184.911 74.0823C183.299 71.2062 182.971 68.4664 184.325 66.7496C186.678 63.7661 193.219 65.002 198.935 69.51C204.652 74.0179 207.379 80.0909 205.026 83.0743C203.751 84.6915 201.245 85.0689 198.307 84.3576" stroke="#EDEDED" stroke-width="2"/>
<path d="M187.309 74.0953C186.309 72.5953 186.255 71.228 187.309 70.6617C188.363 70.0953 192.036 71.3135 196.022 74.4568C200.008 77.6001 202.569 80.9972 201.744 82.0446C201.296 82.6122 200.002 83.0953 198.502 82.5953" stroke="#EDEDED" stroke-width="2"/>
<path d="M201 78.5952C199.889 80.2619 197.533 84.5952 197 88.5952" stroke="#EDEDED" stroke-width="2"/>
<path d="M190.766 70.5954C189.379 72.0414 185.66 75.2804 181.871 76.6682" stroke="#EDEDED" stroke-width="2"/>
<path d="M176.999 114.348C166.999 120.348 139.498 117.848 142.498 109.848C135.998 118.348 154.4 135.595 170 135.595C185.6 135.595 201.498 115.848 196.998 107.848C197.375 111.848 186.999 108.348 176.999 114.348Z" fill="#EDEDED"/>
</svg>
