<svg width="344" height="201" viewBox="0 0 344 201" fill="none" xmlns="http://www.w3.org/2000/svg">
<rect x="0.5" y="0.905273" width="343" height="200" rx="8" fill="#1C1C1C"/>
<path d="M150 77.7739H194.023C194.851 77.7739 195.523 78.4455 195.523 79.2739V122.819C195.523 123.647 194.851 124.319 194.023 124.319H150C149.172 124.319 148.5 123.647 148.5 122.819V79.2739C148.5 78.4455 149.172 77.7739 150 77.7739Z" stroke="#EDEDED" stroke-width="3"/>
<path d="M163.915 107.803H169.191C170.646 107.803 172.283 107.442 173.556 106.902C174.829 106.181 176.103 105.461 177.012 104.199C177.922 103.119 178.649 101.857 179.195 100.416C179.741 98.9748 179.923 97.5335 179.923 96.0922C179.923 94.6509 179.559 93.2096 179.013 91.7683C178.467 90.327 177.74 89.0658 176.648 87.9848C175.739 86.9039 174.466 86.003 173.192 85.2824C171.737 84.5617 170.282 84.2014 168.827 84.2014H154.82V118.072H163.915V107.803ZM163.915 92.4889H168.463C170.364 92.4889 171.01 94.5592 171.01 96.0922C171.01 97.5193 170.433 99.5153 168.827 99.5153H164.097V92.4889H163.915Z" fill="#EDEDED"/>
<path d="M189.022 111.766H167.922V118.251H189.022V111.766Z" fill="#EDEDED"/>
</svg>
        