<svg width="344" height="201" viewBox="0 0 344 201" fill="none" xmlns="http://www.w3.org/2000/svg">
<rect x="0.5" y="0.905273" width="343" height="200" rx="8" fill="#1C1C1C"/>
<path d="M150.356 110.975C140.241 116.973 131.904 123.542 129 126.076C130.735 125.231 134.971 123.182 138.031 121.746C141.856 119.951 147.275 118.367 148.337 118.262C149.4 118.156 149.294 118.684 151.419 120.585C153.544 122.486 159.281 126.921 170.013 126.921C180.744 126.921 189.35 121.218 197.744 110.447C204.459 101.83 211.379 88.1305 214 82.3578C208.581 80.7034 201.144 78.3322 192.537 76.6552C174.369 73.1148 157.426 76.5329 149.188 89.7497C146.135 94.6474 142.951 102.437 145.256 109.814C146.708 108.828 150.25 106.012 158.219 102.844C164.221 100.458 174.617 97.7049 179.787 96.5081C174.192 98.8313 160.471 104.977 150.356 110.975Z" fill="#EDEDED"/>
</svg>
