<svg width="340" height="189" viewBox="0 0 340 189" fill="none" xmlns="http://www.w3.org/2000/svg">
<rect x="0.421836" y="0.421836" width="339.156" height="187.295" rx="6.32754" fill="white"/>
<rect x="0.421836" y="0.421836" width="339.156" height="187.295" rx="6.32754" stroke="#E6E8EB" stroke-width="0.843672"/>
<path d="M132.034 115.805L83.5231 115.805C81.6593 115.805 80.1484 114.294 80.1484 112.43L80.1484 41.3415C80.1484 39.4777 81.6593 37.9668 83.5231 37.9668L160.966 37.9668C162.829 37.9668 164.34 39.4777 164.34 41.3415L164.34 112.43C164.34 114.294 162.829 115.805 160.966 115.805L144.268 115.805" stroke="#E5E5E5" stroke-width="0.603971"/>
<path d="M0.301985 38.2688L68.3375 38.2688C70.0345 38.2688 71.4102 39.6445 71.4102 41.3415L71.4102 112.21C71.4102 113.907 70.0345 115.283 68.3375 115.283L0.301985 115.283L0.301985 38.2688Z" stroke="#E5E5E5" stroke-width="0.603971"/>
<path d="M267.747 41.3415C267.747 39.6445 269.123 38.2688 270.82 38.2688L338.855 38.2688L338.855 115.283L270.82 115.283C269.123 115.283 267.747 113.907 267.747 112.21L267.747 41.3415Z" stroke="#E5E5E5" stroke-width="0.603971"/>
<path opacity="0.2" d="M125.518 121.118C125.518 121.118 131.924 118.172 134.407 115.725C136.89 113.278 142.595 102.998 144.289 99.9995C145.984 96.9952 157.845 93.0156 158.655 93.4294C159.464 93.8432 158.38 96.0354 157.388 96.6552C156.396 97.275 155.498 97.7526 155.498 97.7526C155.498 97.7526 162.452 98.2832 162.462 99.1667C162.473 100.05 161.681 101.427 159.481 101.19C157.282 100.952 152.971 101.6 150.448 104.426C150.448 104.426 149.553 106.146 151 105.72C152.447 105.294 156.54 102.669 157.591 103.51C158.635 104.356 158.933 104.826 158.09 105.65C157.247 106.474 153.668 108.513 152.486 108.967C151.305 109.415 150.072 112.608 148.539 113.098C147.006 113.594 146.676 113.942 146.007 113.647C145.331 113.351 127.216 131.362 127.216 131.362L125.517 121.13L125.518 121.118Z" fill="black"/>
<path d="M127.288 124.951C127.405 125.632 127.504 126.312 127.603 126.992C127.638 127.239 127.704 127.483 127.732 127.73C127.836 128.599 127.938 129.48 128.041 130.348C128.098 130.732 128.161 131.116 128.218 131.499C128.26 131.741 128.301 131.988 128.342 132.23C128.365 132.476 128.363 132.731 128.361 132.98C128.35 133.138 128.265 133.135 128.124 133.029C127.989 132.923 127.754 132.722 127.624 132.453C127.462 131.967 127.337 131.473 127.219 130.98C127.144 130.479 127.094 129.969 127.062 129.46C127.023 128.848 126.868 128.235 126.762 127.622C126.645 126.946 126.539 126.278 126.408 125.607C126.33 125.197 126.245 124.786 126.154 124.375C126.006 123.757 125.865 123.134 125.659 122.54C125.495 122.078 125.284 121.649 125.099 121.203L124.971 120.916C124.84 120.543 124.88 120.389 125.056 120.231C125.096 120.193 125.137 120.148 125.177 120.122C125.321 120.022 125.518 120.122 125.712 120.367C125.99 120.737 126.196 121.148 126.402 121.565C126.582 121.992 126.718 122.444 126.847 122.896C127.038 123.567 127.178 124.258 127.32 124.942L127.294 124.951L127.288 124.951Z" fill="black"/>
<path d="M127.117 132.24C127.117 132.24 129.379 138.813 130.803 138.087C132.62 137.158 129.036 130.343 129.036 130.343L127.117 132.24Z" fill="black"/>
<path d="M106.403 125.516C109.731 123.439 113.116 121.397 116.726 119.708C118.041 119.091 119.383 118.502 120.8 118.067L121.266 117.928C121.429 117.884 121.545 117.829 121.812 117.784C122.035 117.747 122.23 117.743 122.384 117.735C122.548 117.734 122.605 117.716 122.903 117.723C123.393 117.701 123.888 117.924 124.262 118.188C124.61 118.474 124.868 118.799 125.06 119.118C125.443 119.761 125.668 120.405 125.851 121.039C126.034 121.673 126.181 122.303 126.303 122.93C126.794 125.44 127.081 127.923 127.586 130.355C127.808 131.431 128.079 132.494 128.441 133.512C128.797 134.529 129.255 135.502 129.887 136.275C129.983 136.407 130.093 136.522 130.204 136.625L130.369 136.788C130.424 136.842 130.443 136.844 130.476 136.872C130.595 136.958 130.742 137.071 130.888 137.013C131.029 136.943 131.072 136.771 131.099 136.633C131.122 136.532 131.17 136.13 131.185 135.815C131.213 135.148 131.188 134.458 131.139 133.766C131.102 133.421 131.103 133.074 131.103 132.721C131.098 132.368 131.086 132.02 131.062 131.664C131.002 130.788 131.104 130.865 131.513 131.553C131.714 131.897 131.985 132.394 132.296 133.023C132.558 133.659 132.721 134.431 132.775 135.307C132.788 135.698 132.795 136.094 132.763 136.516L132.746 136.679L132.714 136.919C132.698 137.069 132.649 137.253 132.611 137.432C132.503 137.767 132.359 138.093 132.151 138.326C131.747 138.807 131.018 139.01 130.423 138.765C130.268 138.731 130.121 138.618 129.979 138.518L129.541 138.222L129.325 138.078L129.203 137.961L128.96 137.723C127.744 136.427 127.17 134.93 126.707 133.482C125.839 130.561 125.52 127.637 125.091 124.768C124.962 123.915 124.815 123.054 124.61 122.223C124.405 121.398 124.144 120.573 123.76 119.943C123.566 119.642 123.346 119.418 123.158 119.35C123.11 119.345 123.063 119.322 123.016 119.311C122.96 119.317 122.905 119.317 122.851 119.311C122.593 119.333 122.349 119.338 122.2 119.359C122.107 119.373 122.095 119.372 121.988 119.409L121.678 119.511L121.054 119.707C120.638 119.833 120.23 120.003 119.825 120.149C116.235 121.536 112.826 123.509 109.478 125.548C107.419 126.81 105.379 128.117 103.35 129.437C100.269 131.431 97.1569 133.428 93.9985 135.287C91.5317 136.713 89.0958 138.136 86.3242 139.043C86.0155 139.139 85.7074 139.228 85.4047 139.324C85.0864 139.394 84.7688 139.458 84.4445 139.527C83.2252 139.703 82.3641 139.661 81.7927 139.473C81.5103 139.377 81.2863 139.305 81.1235 139.172C80.9687 139.022 80.8634 138.865 80.7742 138.727C80.6965 138.598 80.588 138.47 80.5541 138.388C80.4963 138.242 80.7204 138.198 81.1424 138.127C81.2467 138.12 81.3676 138.072 81.4809 138.096C81.6034 138.09 81.7439 138.087 81.8845 138.084C82.0311 138.081 82.1818 138.097 82.3465 138.096C82.5184 138.083 82.6964 138.072 82.8865 138.061C85.1468 137.897 87.4654 136.894 89.723 135.774C91.9844 134.619 94.2334 133.291 96.4593 131.894C99.7685 129.821 103.06 127.629 106.393 125.497L106.42 125.53L106.403 125.516Z" fill="black"/>
<path d="M151.391 96.7421C150.038 97.3179 148.683 97.9117 147.379 98.5473C147.051 98.7075 146.729 98.8684 146.419 99.0366L145.972 99.2877C145.842 99.3653 145.678 99.4698 145.644 99.5028C145.515 99.69 145.312 99.8756 145.157 100.194L144.91 100.63L144.681 101.118C144.24 102.063 143.863 103.094 143.418 104.082C141.863 107.606 139.809 111.017 137.111 113.824C136.493 114.429 135.923 115.087 135.25 115.631L134.282 116.484C133.971 116.78 133.599 117.009 133.267 117.272C132.824 117.597 132.392 117.941 131.938 118.252L130.504 119.081L129.785 119.48C129.535 119.599 129.285 119.713 129.026 119.801L128.247 120.079C127.987 120.167 127.713 120.223 127.45 120.293C126.781 120.448 126.865 120.408 127.299 119.991C127.724 119.543 128.475 118.721 129.493 118.092C130.374 117.479 131.281 116.917 132.117 116.269C132.536 115.941 132.992 115.661 133.383 115.3L134.585 114.252C136.129 112.79 137.548 111.187 138.8 109.426C140.304 107.308 141.396 104.813 142.457 102.332C142.761 101.646 143.046 100.958 143.389 100.257C143.541 99.9144 143.755 99.5536 143.951 99.203C144.036 99.0294 144.215 98.8412 144.343 98.6661C144.419 98.5768 144.477 98.4916 144.566 98.3975C144.687 98.2885 144.773 98.2306 144.865 98.1612C145.572 97.7001 146.239 97.3929 146.927 97.0515C147.608 96.7215 148.299 96.4108 148.983 96.1115C150.677 95.3648 152.391 94.6627 154.113 93.9919C154.99 93.6521 155.879 93.3196 156.776 93.0185L157.458 92.7981L157.804 92.6945L158.224 92.5805C158.55 92.4992 158.881 92.4244 159.171 92.4489C159.315 92.4641 159.454 92.4787 159.572 92.5762C159.651 92.6941 159.709 92.8341 159.775 92.9567L159.88 93.4059C159.888 93.5649 159.901 93.7245 159.904 93.8769C159.881 94.0388 159.87 94.1959 159.835 94.3565C159.781 94.5152 159.757 94.6343 159.701 94.7562C159.496 95.2519 159.179 95.6567 158.843 96.0108C158.03 96.8441 157.091 97.4269 156.149 97.9789C155.202 98.5183 154.237 98.9949 153.258 99.4395C152.829 99.6378 152.411 99.8373 151.967 100.004C151.153 100.326 150.605 100.493 150.19 100.553C149.787 100.62 149.532 100.612 149.295 100.544C149.189 100.515 149.056 100.501 148.987 100.463C148.743 100.346 149.315 99.8342 150.439 99.1795C152.093 98.2886 153.857 97.5735 155.478 96.6548C156.282 96.1978 157.06 95.7015 157.656 95.1314C157.948 94.8457 158.187 94.5483 158.314 94.2695C158.351 94.2065 158.378 94.1241 158.389 94.0766C158.397 94.0592 158.389 94.0766 158.391 94.0646C158.391 94.0646 158.422 94.0557 158.353 94.0728L158.101 94.1498L157.59 94.3151C156.907 94.5475 156.216 94.8034 155.523 95.0713C154.144 95.6017 152.767 96.1749 151.406 96.7681L151.386 96.7355L151.391 96.7421Z" fill="black"/>
<path d="M160.063 100.04C160.278 100.026 160.487 100.012 160.697 99.9853L160.982 99.9423L161.055 99.9379C161.142 99.9287 161.267 99.8992 161.368 99.8064C161.382 99.7896 161.396 99.7729 161.41 99.7561C161.448 99.681 161.347 99.6582 161.306 99.6417C161.26 99.6186 161.195 99.5936 161.113 99.5666C161.065 99.5555 161.048 99.5416 160.959 99.5261L160.509 99.4544C159.909 99.3609 159.305 99.2547 158.707 99.1432C158.169 99.044 157.63 98.9508 157.092 98.8516C156.745 98.7908 156.394 98.7112 156.061 98.5728C155.892 98.5002 155.722 98.4397 155.568 98.3323C155.416 98.2189 155.27 98.0941 155.138 97.9585C154.981 97.7776 155.064 97.7377 155.294 97.6949C155.406 97.6763 155.568 97.6386 155.738 97.5955C155.921 97.5357 156.101 97.5059 156.273 97.5484C156.912 97.6156 157.552 97.7864 158.218 97.8869C158.882 98.0054 159.567 98.1018 160.251 98.2589C160.698 98.3546 160.957 98.3879 161.806 98.4834C162.155 98.5322 162.528 98.5775 162.779 98.683C163.03 98.7885 163.219 98.8997 163.299 99.0663C163.337 99.1129 163.333 99.2098 163.387 99.2764C163.378 99.3606 163.387 99.4468 163.36 99.5291C163.229 100.02 162.929 100.433 162.415 100.738C161.925 101.052 161.215 101.251 160.869 101.3C160.254 101.405 159.646 101.457 159.042 101.454C158.128 101.455 157.223 101.366 156.331 101.267C155.638 101.194 154.947 101.163 154.242 101.028C154.087 100.994 153.929 100.983 153.778 100.919C153.208 100.713 153.074 100.48 153.116 100.143C153.124 100.065 153.132 99.9868 153.151 99.9219C153.223 99.7043 153.514 99.601 153.883 99.6277C154.996 99.7082 156.176 99.9114 157.381 99.9834C158.27 100.053 159.172 100.056 160.036 100.007L160.033 100.037L160.063 100.04Z" fill="black"/>
<path d="M153.663 107.453C155.05 106.905 156.453 106.317 157.385 105.398C157.543 105.232 157.678 105.046 157.765 104.86C157.829 104.77 157.846 104.674 157.886 104.581C157.91 104.523 157.912 104.505 157.92 104.487C157.922 104.469 157.931 104.446 157.933 104.428C157.945 104.368 157.928 104.299 157.878 104.251C157.828 104.21 157.782 104.174 157.573 104.14C157.202 104.077 156.734 104.113 156.3 104.189C155.495 104.305 154.619 104.87 153.695 105.248C152.877 105.606 152.034 105.967 151.112 106.156C150.522 106.259 149.867 106.348 149.228 106.11C149.067 106.069 148.924 105.981 148.781 105.893C148.638 105.805 148.488 105.728 148.385 105.602C148.128 105.386 148.049 105.031 147.919 104.768C147.779 104.412 147.861 104.451 148.163 104.587C148.329 104.634 148.49 104.785 148.818 104.735C148.966 104.72 149.045 104.783 149.165 104.795C149.28 104.808 149.388 104.819 149.488 104.86C149.872 104.912 150.274 104.979 150.745 104.901C151.21 104.822 151.702 104.667 152.191 104.487C152.687 104.29 153.185 104.074 153.692 103.835C154.216 103.605 154.711 103.365 155.361 103.153C155.758 103.03 156.129 102.978 156.512 102.927C156.895 102.882 157.288 102.857 157.721 102.908C158.132 102.939 158.833 103.171 159.088 103.703C159.363 104.213 159.184 104.924 159.016 105.247C158.606 106.129 157.913 106.689 157.242 107.154C156.56 107.612 155.84 107.968 155.118 108.288C154.676 108.485 154.231 108.663 153.791 108.842L153.153 109.116L152.864 109.256C152.792 109.297 152.72 109.344 152.666 109.399C152.475 109.586 152.248 109.891 152.042 110.173C151.828 110.461 151.608 110.754 151.377 111.04C150.92 111.619 150.422 112.181 149.852 112.669C149.414 113.061 148.922 113.393 148.392 113.684C147.847 113.937 147.258 114.149 146.631 114.192C146.362 114.206 146.088 114.263 145.819 114.21C145.566 114.184 145.357 114.143 145.184 114.107C145.019 114.047 144.9 113.962 144.798 113.896C144.599 113.759 144.525 113.593 144.49 113.401C144.474 113.32 144.44 113.238 144.441 113.177C144.424 112.992 144.89 112.792 145.475 112.847C146.346 112.915 147.158 112.787 147.899 112.403C148.641 112.012 149.316 111.396 149.929 110.669C150.395 110.122 150.805 109.532 151.308 108.867L151.531 108.598C151.588 108.519 151.743 108.383 151.851 108.285C151.965 108.181 152.113 108.106 152.231 108.033L152.539 107.883C152.929 107.711 153.279 107.571 153.637 107.42L153.651 107.452L153.663 107.453Z" fill="black"/>
<path d="M132.155 125.784L134.468 123.562C134.747 123.288 134.998 122.991 135.282 122.723C136.289 121.782 137.297 120.842 138.304 119.901C138.762 119.493 139.198 119.058 139.627 118.628C139.9 118.353 140.202 118.093 140.497 117.838L140.724 117.648L140.984 117.493C141.159 117.396 141.328 117.298 141.509 117.196C141.729 117.079 141.735 117.134 141.669 117.358C141.622 117.518 141.58 117.684 141.534 117.831C141.498 117.943 141.469 118.043 141.44 118.144C141.422 118.197 141.398 118.249 141.386 118.308L141.292 118.445C141.052 118.76 140.817 119.082 140.565 119.384C140.303 119.679 140.034 119.967 139.761 120.249C139.23 120.832 138.643 121.367 138.028 121.88C137.299 122.497 136.663 123.27 135.98 123.965L133.708 126.257L132.31 127.668C131.606 128.385 130.874 129.081 130.2 129.813C129.671 130.378 129.215 131 128.709 131.579C128.592 131.707 128.493 131.837 128.37 131.958C127.915 132.403 127.695 132.465 127.347 132.294C127.266 132.255 127.184 132.222 127.11 132.178C126.877 132.02 126.895 131.669 127.156 131.276C127.897 130.094 128.899 129.086 129.882 128.033C130.616 127.253 131.39 126.506 132.147 125.74L132.176 125.762L132.155 125.784Z" fill="black"/>
<path d="M101.503 154.118C103.657 152.476 105.911 150.87 108.244 149.442C109.091 148.922 109.924 148.371 110.786 147.877C113.84 146.142 117.023 144.633 120.297 143.358C121.751 142.799 123.217 142.254 124.688 141.77C125.63 141.455 126.586 141.172 127.561 140.94L128.997 140.616C129.241 140.557 129.496 140.517 129.765 140.502C130.034 140.494 130.317 140.469 130.601 140.554C130.948 140.675 131.056 140.809 131.032 140.855C131.008 140.913 130.83 140.925 130.574 141.044C130.323 141.17 130.025 141.333 129.664 141.581C129.317 141.806 128.756 142.039 128.241 142.186C126.347 142.741 124.463 143.328 122.606 144.003C120.742 144.677 118.907 145.433 117.067 146.238C114.869 147.199 112.72 148.501 110.607 149.751C108.278 151.143 106.032 152.611 103.866 154.251C102.529 155.254 101.207 156.284 99.8796 157.312C97.8622 158.871 95.7828 160.38 93.6325 161.755C91.9603 162.814 90.2966 163.85 88.4804 164.657C88.0879 164.853 87.6878 165.006 87.2804 165.17C86.5223 165.479 85.9915 165.6 85.6054 165.62C85.2186 165.646 84.9759 165.578 84.7595 165.434C84.6567 165.368 84.5352 165.307 84.4705 165.227C84.2474 164.972 84.8005 164.525 85.8457 164.094C87.3982 163.417 88.9613 162.699 90.4907 161.838C92.0141 160.976 93.5168 160.02 94.991 158.989C97.1773 157.448 99.3112 155.768 101.476 154.085L101.504 154.112L101.503 154.118Z" fill="black"/>
<rect x="174.279" y="37.9387" width="83.7274" height="77.2338" rx="3.0727" fill="white" stroke="#E5E5E5" stroke-width="0.60397"/>
<path d="M236.94 107.527L238.327 102.024L239.541 102.024L240.935 107.527L239.97 107.527L239.669 106.193L238.206 106.193L237.905 107.527L236.94 107.527ZM238.38 105.424L239.495 105.424L239.164 103.946C239.108 103.7 239.061 103.479 239.02 103.283C238.98 103.082 238.953 102.936 238.938 102.846C238.922 102.936 238.895 103.082 238.855 103.283C238.819 103.479 238.772 103.698 238.711 103.939L238.38 105.424ZM243.284 107.527L243.284 102.024L245.116 102.024C245.483 102.024 245.802 102.094 246.074 102.235C246.35 102.376 246.564 102.574 246.715 102.831C246.865 103.082 246.941 103.379 246.941 103.72C246.941 104.057 246.863 104.354 246.707 104.61C246.556 104.866 246.345 105.065 246.074 105.205C245.802 105.346 245.483 105.416 245.116 105.416L244.227 105.416L244.227 107.527L243.284 107.527ZM244.227 104.565L245.116 104.565C245.378 104.565 245.586 104.489 245.742 104.338C245.903 104.183 245.983 103.977 245.983 103.72C245.983 103.459 245.903 103.253 245.742 103.102C245.586 102.951 245.378 102.876 245.116 102.876L244.227 102.876L244.227 104.565ZM249.312 107.527L249.312 102.024L251.144 102.024C251.511 102.024 251.83 102.094 252.102 102.235C252.378 102.376 252.592 102.574 252.743 102.831C252.893 103.082 252.969 103.379 252.969 103.72C252.969 104.057 252.891 104.354 252.735 104.61C252.584 104.866 252.373 105.065 252.102 105.205C251.83 105.346 251.511 105.416 251.144 105.416L250.255 105.416L250.255 107.527L249.312 107.527ZM250.255 104.565L251.144 104.565C251.406 104.565 251.614 104.489 251.77 104.338C251.931 104.183 252.011 103.977 252.011 103.72C252.011 103.459 251.931 103.253 251.77 103.102C251.614 102.951 251.406 102.876 251.144 102.876L250.255 102.876L250.255 104.565Z" fill="black"/>
<rect x="178.193" y="41.8938" width="74.976" height="54.9944" fill="#FFEAEB" stroke="#E5E5E5" stroke-width="0.60397"/>
<path d="M202.236 85.1946C204.511 84.1587 206.773 83.067 209.018 81.9614L211.468 80.7146C214.374 79.3054 217.27 77.8711 220.147 76.3982C221.424 75.7441 222.681 75.0455 223.936 74.3708C224.739 73.9315 225.537 73.4856 226.34 73.0463C227.148 72.6136 227.956 72.1809 228.876 71.9542C229.451 71.811 229.38 71.8457 229.056 72.2524C228.888 72.4521 228.686 72.7875 228.384 73.0997C228.233 73.2588 228.079 73.4359 227.892 73.5911C227.699 73.7396 227.494 73.8869 227.266 74.0195C225.658 74.9706 224.056 75.9283 222.412 76.821C220.763 77.701 219.087 78.5538 217.391 79.3681C215.355 80.3391 213.326 81.5169 211.275 82.571C209.023 83.7365 206.736 84.8315 204.443 85.9259C203.025 86.5889 201.603 87.2392 200.169 87.8762C199.631 88.1204 199.072 88.3379 198.523 88.5688C198.249 88.6842 197.974 88.7996 197.69 88.8958L196.795 89.2282C196.387 89.4017 196.044 89.4188 195.692 89.4712L195.166 89.5471C195.081 89.5439 194.983 89.6059 194.916 89.5561C194.868 89.4903 194.851 89.4219 194.829 89.3528C194.738 89.0764 194.72 88.6868 194.766 88.2679L194.87 87.1648C195.038 85.3662 195.088 83.597 195.014 81.8507C194.995 81.4671 194.951 81.0988 194.92 80.7199C194.751 79.3267 194.77 78.9411 194.974 78.5213C195.021 78.4295 195.04 78.3164 195.078 78.2479C195.139 78.1334 195.285 78.1858 195.522 78.4114C195.759 78.6311 195.992 79.0563 196.173 79.6211C196.595 81.3025 196.638 83.009 196.595 84.7124C196.568 85.5634 196.516 86.4177 196.447 87.2642L196.412 87.5813L196.409 87.6598L197.075 87.4115C197.646 87.2012 198.223 86.9371 198.796 86.7029C199.941 86.2039 201.092 85.6936 202.23 85.1454L202.25 85.1779L202.236 85.1946Z" fill="black"/>
<path d="M189.175 79.399C189.192 78.9719 189.722 80.8358 190.731 81.0237C192.652 81.3831 223.667 72.7971 224.815 71.7858C225.207 71.4356 225.09 71.8337 225.226 71.5344C225.523 70.89 208.261 75.4095 204.185 76.2966C200.11 77.1837 189.175 79.399 189.175 79.399Z" fill="black"/>
<path d="M196.951 76.8514C200.042 76.2744 203.131 75.6669 206.205 75.0216C207.327 74.7929 208.438 74.4965 209.56 74.2618C213.511 73.4035 217.467 72.5518 221.375 71.5318C223.115 71.1044 224.832 70.5597 226.539 70.056C227.62 69.6961 228.707 69.3428 229.804 69.0086C230.357 68.8571 230.881 68.6361 231.443 68.5038C232.001 68.3649 232.563 68.2386 233.129 68.1368C233.843 68.0089 233.763 68.0727 233.259 68.4469C233.007 68.631 232.658 68.9254 232.209 69.2332C231.985 69.3841 231.752 69.5642 231.48 69.7099C231.209 69.8496 230.914 69.9808 230.609 70.0987C229.5 70.4858 228.399 70.9101 227.276 71.2596C226.154 71.603 225.022 71.9273 223.89 72.2515C221.622 72.8754 219.34 73.4616 217.025 73.9597C214.264 74.5785 211.421 75.3334 208.604 75.9643C205.506 76.6613 202.389 77.302 199.274 77.9308C197.357 78.3028 195.433 78.6801 193.516 79.0522L190.058 79.6981L188.304 80.0214C187.509 80.1588 186.714 80.302 185.925 80.44C185.641 80.4213 185.35 80.4079 185.066 80.3891C184.939 80.3754 184.849 80.3657 184.73 80.3407C184.656 80.2904 184.679 80.1962 184.685 80.1425C184.692 80.0828 184.716 80.0251 184.735 79.9667C184.814 79.7517 184.911 79.5327 185.073 79.2785C185.235 79.0242 185.48 78.7367 185.744 78.4451C186.008 78.1536 186.29 77.864 186.579 77.5631L187.256 76.8935C188.062 76.105 188.879 75.3298 189.712 74.5685C190.078 74.2336 190.432 73.8975 190.81 73.5699C192.212 72.3507 192.766 72.0726 193.279 72.0677C193.394 72.0682 193.531 72.0467 193.614 72.0678C193.755 72.1073 193.701 72.2705 193.511 72.558C193.32 72.8454 192.988 73.2624 192.509 73.736C191.251 75.0312 189.966 76.3477 188.66 77.6861L188.178 78.1896L187.937 78.4413C187.882 78.4958 187.917 78.4572 187.909 78.4745L187.905 78.5103C187.904 78.5222 187.936 78.5076 187.936 78.5076C187.961 78.4983 188.005 78.4909 188.042 78.4829C189.441 78.2238 190.841 77.9648 192.246 77.7064L196.919 76.8116L196.933 76.8494L196.951 76.8514Z" fill="black"/>
<path d="M209.251 69.4554L215.074 68.9315L217.197 68.6961L224.701 68.0217C225.81 67.9121 226.921 67.7847 228.021 67.65C229.43 67.4704 230.85 67.3039 232.282 67.3617C232.731 67.3799 232.681 67.5011 232.328 67.7163C232.152 67.8238 231.899 67.9593 231.591 68.1009C231.283 68.2366 230.918 68.3419 230.514 68.4129C229.093 68.6938 227.654 68.816 226.214 68.9984C224.775 69.1629 223.327 69.3083 221.87 69.4225C220.13 69.5606 218.335 69.8615 216.556 70.0797C214.604 70.3154 212.647 70.5386 210.688 70.7314L207.071 71.0891C205.247 71.2723 203.409 71.4119 201.596 71.6023C200.185 71.7397 198.813 71.9715 197.414 72.1102C197.106 72.1433 196.808 72.1895 196.496 72.2041C195.346 72.2913 194.971 72.1604 194.701 71.842C194.642 71.7694 194.565 71.6948 194.525 71.6181C194.4 71.3696 194.855 71.1112 195.685 70.9354C196.92 70.737 198.183 70.5053 199.471 70.3788C200.76 70.2345 202.066 70.1159 203.378 69.9861C205.325 69.798 207.283 69.6171 209.242 69.4303L209.25 69.4674L209.251 69.4554Z" fill="black"/>
<path d="M180.121 137.72C183.678 137.424 187.187 137.129 190.571 136.31C193.937 135.489 197.195 134.163 199.841 132.006C201.775 130.469 203.212 128.385 204.165 126.121C205.009 124.124 205.356 121.909 205.037 119.785C204.725 117.655 203.631 115.694 202.069 114.12C200.521 112.529 198.617 111.251 196.652 110.082C194.717 108.874 192.638 107.917 190.584 106.841C188.765 105.901 186.944 104.911 185.227 103.757C183.516 102.604 181.853 101.28 180.678 99.4985C179.916 98.3763 179.478 96.9496 179.615 95.5433C179.781 94.1402 180.454 92.8778 181.285 91.8271C182.113 90.7578 183.161 89.8828 184.272 89.1604C185.383 88.438 186.564 87.8448 187.747 87.2943C189.229 86.6186 189.08 86.8149 187.907 87.5547C187.326 87.9283 186.493 88.4383 185.533 89.1105C184.58 89.7833 183.517 90.6203 182.58 91.6958C181.77 92.6578 181.085 93.7549 180.808 94.8967C180.519 96.0372 180.674 97.2204 181.237 98.2783C181.781 99.3462 182.642 100.285 183.606 101.119C184.569 101.96 185.634 102.702 186.741 103.395C188.961 104.774 191.345 105.941 193.737 107.138C194.927 107.731 196.159 108.394 197.295 109.09C198.451 109.781 199.608 110.51 200.72 111.324C202.038 112.301 203.322 113.425 204.359 114.809C205.417 116.17 206.143 117.835 206.476 119.554C206.814 121.285 206.708 123.072 206.327 124.773C205.94 126.474 205.269 128.101 204.332 129.559C203.314 131.154 202.002 132.601 200.5 133.736C199.013 134.897 197.37 135.829 195.663 136.565C192.236 138.047 188.589 138.777 184.969 139.206C180.509 139.713 176.059 139.796 171.713 140.424C165.136 141.312 158.8 143.982 153.554 147.998C149.452 151.096 146.13 154.989 143.509 159.293C142.976 160.273 142.402 161.194 141.943 162.219C141.484 163.147 141.095 163.918 140.834 164.588C140.549 165.249 140.296 165.78 140.085 166.212C139.714 167.101 139.412 167.584 139.068 167.953C138.911 168.118 138.733 168.354 138.609 168.437C138.392 168.584 138.352 168.233 138.474 167.457C138.535 167.069 138.643 166.576 138.787 165.991C138.93 165.405 139.19 164.754 139.459 164.012C141.096 159.612 143.735 155.467 146.99 151.803C148.649 150.005 150.436 148.27 152.42 146.775C153.381 145.981 154.431 145.313 155.461 144.606C155.974 144.249 156.527 143.964 157.061 143.634C157.605 143.323 158.127 142.985 158.696 142.72C161.986 140.991 165.541 139.729 169.197 138.976C172.851 138.235 176.518 137.987 180.108 137.677L180.12 137.726L180.121 137.72Z" fill="black"/>
<path d="M237.147 60.9831C237.133 61.115 236.974 61.128 236.73 61.083C236.652 61.0744 236.459 60.9501 236.452 60.9008C236.432 60.8075 236.418 60.7149 236.416 60.6236C236.41 60.5683 236.684 59.9 236.776 59.6673C236.862 59.4399 236.987 59.2411 237.112 59.0483C237.384 58.6653 237.629 58.261 237.941 57.9067C238.005 57.8286 238.085 57.7585 238.176 57.7017C238.484 57.4986 238.724 57.2457 238.949 56.9667C238.984 56.922 239.037 56.8853 239.04 56.8066C239.042 56.6793 239.731 55.9838 239.852 55.9363C240.157 55.8059 240.441 55.6548 240.735 55.5171C240.78 55.4977 240.803 55.4517 240.874 55.4716C241.033 55.5193 241.095 55.4472 241.18 55.3958C241.296 55.3296 241.429 55.2834 241.572 55.2506C241.646 55.2405 241.74 55.269 241.83 55.2788C241.908 55.2874 241.97 55.4399 241.967 55.4699C241.952 55.5472 242.033 55.5865 242.075 55.6397C242.091 55.6597 242.107 55.6797 242.117 55.699C242.125 55.7363 241.822 56.5045 241.758 56.54C241.758 56.54 241.709 56.5953 241.641 56.6668C241.571 56.7442 241.482 56.8376 241.391 56.9491C241.216 57.1606 241.034 57.3835 240.992 57.4335C240.956 57.4842 240.887 57.501 240.824 57.5244C240.793 57.5331 240.266 58.1858 240.238 58.2131C240.099 58.3193 240.015 58.4801 239.81 58.5184C239.767 58.5258 239.752 58.5544 239.724 58.5818C239.529 58.8094 239.29 58.9957 239.062 59.1953C238.947 59.2981 238.85 59.4149 238.74 59.5244C238.72 59.5464 238.689 59.5551 238.663 59.5645C238.631 59.5852 238.593 59.5992 238.572 59.6213C238.33 59.8922 238.043 60.1219 237.846 60.4282C237.802 60.4962 237.454 60.7313 237.414 60.818C237.391 60.8641 237.143 60.9098 237.143 60.9704L237.147 60.9831Z" fill="black"/>
<path d="M240.215 65.2214C240.102 65.2515 240.036 65.1298 239.998 64.9266C239.987 64.859 240.025 64.6762 240.064 64.6563C240.13 64.6151 240.19 64.5673 240.253 64.544C240.285 64.5353 240.839 64.4806 241.026 64.4405C241.213 64.4063 241.39 64.4014 241.567 64.4023C241.932 64.4056 242.299 64.391 242.666 64.3823C242.746 64.3788 242.83 64.3879 242.906 64.4143C243.176 64.5097 243.455 64.5218 243.737 64.504C243.786 64.5032 243.827 64.5137 243.875 64.4646C243.95 64.3943 244.705 64.3974 244.799 64.4377C245.037 64.5358 245.275 64.5917 245.517 64.66C245.553 64.6699 245.585 64.6553 245.622 64.7075C245.693 64.8299 245.768 64.8198 245.84 64.8276C245.942 64.8386 246.049 64.8682 246.148 64.9031C246.201 64.9209 246.255 64.987 246.304 65.0405C246.353 65.0881 246.34 65.2616 246.326 65.2782C246.284 65.3339 246.329 65.4173 246.34 65.4848C246.343 65.5093 246.346 65.5397 246.344 65.5576C246.345 65.6 245.714 65.9661 245.647 65.9649C245.635 65.9636 244.74 66.066 244.61 66.0822C244.554 66.0942 244.503 66.0645 244.45 66.0467C244.414 66.0428 243.696 66.08 243.672 66.0833C243.523 66.0552 243.373 66.0873 243.227 65.969C243.199 65.9479 243.169 65.9506 243.138 65.9473C242.883 65.9439 242.629 65.8742 242.374 65.8105C242.243 65.7783 242.115 65.7765 241.984 65.7563C241.959 65.7537 241.937 65.7332 241.914 65.7246C241.885 65.7095 241.856 65.6943 241.826 65.691C241.519 65.6579 241.213 65.5585 240.904 65.5432C240.832 65.5354 240.508 65.3798 240.423 65.3766C240.375 65.3714 240.247 65.2068 240.202 65.2261L240.215 65.2214Z" fill="black"/>
</svg>
