<svg width="340" height="189" viewBox="0 0 340 189" fill="none" xmlns="http://www.w3.org/2000/svg">
<rect x="0.421836" y="0.421836" width="339.156" height="187.295" rx="6.32754" fill="white"/>
<rect x="0.421836" y="0.421836" width="339.156" height="187.295" rx="6.32754" stroke="#E6E8EB" stroke-width="0.843672"/>
<rect x="37.7497" y="49.9255" width="74.9965" height="74.9965" fill="white" stroke="#E5E5E5" stroke-width="0.515049"/>
<rect x="40.6325" y="59.1716" width="69.2176" height="62.6681" fill="white" stroke="#E5E5E5" stroke-width="0.515049"/>
<rect x="40.6325" y="52.6208" width="69.2176" height="2.75969" fill="white" stroke="#E5E5E5" stroke-width="0.515049"/>
<path d="M62.8906 86.6331C62.8906 80.3863 66.9684 75.7012 73.0851 75.7012C76.2952 75.7012 78.8113 77.046 80.0693 79.3451L80.373 76.3953H85.275V96.7408C85.275 103.899 80.9803 108.367 74.0394 108.367C67.8794 108.367 63.6715 104.853 63.0208 99.1267H68.3132C68.6602 101.903 70.7859 103.552 74.0394 103.552C77.6834 103.552 80.026 101.252 80.026 97.6951V94.1379C78.6812 96.1334 76.035 97.3915 72.9549 97.3915C66.8816 97.3915 62.8906 92.8365 62.8906 86.6331ZM68.2264 86.5029C68.2264 90.1035 70.5256 92.7931 73.9961 92.7931C77.64 92.7931 79.8958 90.2337 79.8958 86.5029C79.8958 82.859 77.6834 80.3429 73.9961 80.3429C70.4822 80.3429 68.2264 82.9891 68.2264 86.5029Z" fill="black"/>
<rect x="102.468" y="78.6247" width="75.1891" height="74.9965" fill="white" stroke="#E5E5E5" stroke-width="0.515049"/>
<rect x="105.351" y="87.8708" width="69.2176" height="62.6681" fill="#FFEAEB" stroke="#E5E5E5" stroke-width="0.515049"/>
<rect x="105.351" y="81.32" width="63.4386" height="2.75969" fill="white" stroke="#E5E5E5" stroke-width="0.515049"/>
<rect x="171.067" y="81.1454" width="3.68687" height="3.10897" fill="white" stroke="#C7C7C7" stroke-width="0.165763"/>
<path d="M129.594 136.847V105.483H134.496L134.843 108.736C136.144 106.264 138.964 104.832 142.218 104.832C148.247 104.832 152.238 109.213 152.238 115.937C152.238 122.618 148.594 127.477 142.218 127.477C139.007 127.477 136.231 126.219 134.886 124.05V136.847H129.594ZM134.93 116.198C134.93 120.059 137.315 122.705 140.959 122.705C144.69 122.705 146.903 120.015 146.903 116.198C146.903 112.38 144.69 109.647 140.959 109.647C137.315 109.647 134.93 112.337 134.93 116.198Z" fill="black"/>
<rect x="163.351" y="33.1638" width="74.9965" height="74.9965" fill="white" stroke="#E5E5E5" stroke-width="0.515049"/>
<rect x="166.234" y="42.4099" width="69.2176" height="62.6681" fill="white" stroke="#E5E5E5" stroke-width="0.515049"/>
<rect x="166.234" y="35.8591" width="69.2176" height="2.75969" fill="white" stroke="#E5E5E5" stroke-width="0.515049"/>
<path d="M205.629 63.4863H210.921V84.9164H206.019L205.629 82.0532C204.327 84.0921 201.551 85.4803 198.688 85.4803C193.742 85.4803 190.836 82.14 190.836 76.8909V63.4863H196.128V75.0256C196.128 79.1034 197.733 80.7518 200.683 80.7518C204.024 80.7518 205.629 78.7997 205.629 74.7219V63.4863Z" fill="black"/>
<rect x="228.476" y="78.6501" width="73.7027" height="73.7027" fill="white" stroke="#E5E5E5" stroke-width="0.515049"/>
<rect x="231.32" y="87.7399" width="68.0228" height="61.5855" fill="#EDEDED" stroke="#E5E5E5" stroke-width="0.515049"/>
<path d="M249.578 136.441L249.017 136.257L248.596 136.726L248.603 136.1L248.036 135.9C248.197 135.828 248.57 135.685 248.57 135.685C248.57 135.685 248.678 135.304 248.671 135.105L249.054 135.52C249.054 135.52 249.572 135.479 249.603 135.475C249.567 135.557 249.273 135.91 249.273 135.91C249.273 135.91 249.451 136.193 249.579 136.441L249.578 136.441Z" fill="#231F20"/>
<path d="M274.053 136.042L273.894 135.465L273.276 135.369L273.793 135.028L273.643 134.438C273.791 134.533 274.115 134.77 274.115 134.77C274.115 134.77 274.486 134.651 274.646 134.535L274.517 135.089C274.517 135.089 274.838 135.505 274.858 135.528C274.771 135.543 274.319 135.489 274.319 135.489C274.319 135.489 274.186 135.797 274.053 136.042Z" fill="#231F20"/>
<path d="M283.336 131.585L283.199 131.092L282.672 131.01L283.113 130.718L282.985 130.214C283.112 130.296 283.389 130.498 283.389 130.498C283.389 130.498 283.706 130.396 283.843 130.297L283.733 130.77C283.733 130.77 284.007 131.126 284.025 131.145C283.951 131.158 283.564 131.112 283.564 131.112C283.564 131.112 283.45 131.375 283.337 131.585L283.336 131.585Z" fill="#231F20"/>
<path d="M252.8 102.443L252.05 102.554L251.854 103.342L251.486 102.612L250.722 102.708C250.862 102.531 251.199 102.148 251.199 102.148C251.199 102.148 251.093 101.643 250.966 101.415L251.65 101.677C251.65 101.677 252.215 101.329 252.247 101.307C252.256 101.423 252.132 102.003 252.132 102.003C252.132 102.003 252.504 102.229 252.8 102.444L252.8 102.443Z" fill="#231F20"/>
<path d="M250.227 111.025L250.233 111.025L250.233 111.032C250.295 111.005 250.352 110.985 250.41 110.966L250.442 110.955C250.688 110.879 250.921 110.841 251.154 110.806C251.619 110.74 252.077 110.708 252.533 110.683C254.357 110.599 262.013 110.544 263.822 110.601C264.541 110.626 266.326 110.652 268.22 110.679C270.555 110.713 273.058 110.75 273.936 110.789C274.73 110.835 275.198 110.832 275.593 110.831C276.213 110.827 276.652 110.825 277.89 111.01C278.157 111.055 278.448 111.154 278.653 111.255C278.669 111.248 278.687 111.242 278.707 111.239C278.864 111.239 279.001 111.29 279.138 111.344L279.444 111.468L279.441 111.474L279.442 111.476C279.492 111.497 279.543 111.519 279.593 111.541C279.643 111.563 279.694 111.585 279.744 111.607C279.763 111.615 279.784 111.622 279.804 111.628C279.822 111.633 279.84 111.639 279.858 111.646C279.87 111.651 279.882 111.656 279.894 111.661C280.012 111.712 280.132 111.764 280.253 111.807C280.313 111.827 280.374 111.848 280.434 111.864C280.447 111.868 280.46 111.871 280.473 111.874C280.499 111.88 280.525 111.887 280.55 111.897C280.588 111.914 280.625 111.934 280.662 111.955C280.684 111.969 280.677 111.986 280.651 112.007C280.625 112.027 280.579 112.061 280.529 112.068C280.457 112.072 280.388 112.062 280.318 112.051C280.304 112.049 280.289 112.047 280.275 112.045C280.2 112.032 280.128 112.002 280.057 111.971C280.049 111.968 280.042 111.965 280.034 111.962C279.975 111.935 279.913 111.918 279.85 111.902C279.812 111.892 279.774 111.881 279.737 111.869C279.627 111.834 279.52 111.792 279.416 111.749C279.383 111.735 279.351 111.722 279.318 111.708C279.286 111.695 279.253 111.682 279.221 111.668C279.191 111.656 279.16 111.643 279.13 111.63C279.063 111.601 278.995 111.573 278.927 111.55C278.91 111.543 278.892 111.538 278.874 111.533C278.843 111.545 278.799 111.554 278.739 111.558L278.626 111.567C278.504 111.576 278.438 111.581 278.372 111.583C278.294 111.585 278.215 111.583 278.045 111.578C277.897 111.573 277.68 111.566 277.333 111.558L274.208 111.454C273.688 111.432 271.84 111.41 269.993 111.388C268.146 111.366 266.3 111.344 265.779 111.321C263.696 111.241 255.761 111.264 253.672 111.27C253.049 111.274 252.417 111.295 251.797 111.352C251.486 111.381 251.176 111.419 250.887 111.483C250.743 111.513 250.602 111.554 250.502 111.601L250.498 111.603C250.45 111.628 250.441 111.633 250.422 111.655C250.418 111.661 250.415 111.669 250.41 111.677C250.406 111.686 250.401 111.696 250.394 111.708C250.382 111.728 250.369 111.749 250.358 111.783C250.262 112.019 250.208 112.325 250.159 112.616C250.114 112.912 250.08 113.215 250.052 113.518C249.996 114.125 249.962 114.739 249.936 115.348C249.832 118.038 249.864 120.743 249.962 123.441C249.996 124.271 250.033 125.102 250.101 125.924C250.118 126.128 250.14 126.335 250.168 126.531C250.19 126.703 250.219 126.717 250.404 126.801L250.422 126.809C250.782 126.95 251.216 127.02 251.634 127.079C252.923 127.245 254.248 127.294 261.408 127.231C262.724 127.263 264.041 127.267 265.348 127.259C266.425 127.252 266.747 127.229 267.11 127.204C267.433 127.181 267.789 127.157 268.738 127.139C268.886 127.136 269.666 127.133 270.446 127.13C271.675 127.126 272.903 127.122 271.662 127.117C274.129 127.133 278.032 127.192 278.308 127.323C278.355 127.344 278.365 127.366 278.375 127.387C278.382 127.402 278.389 127.417 278.409 127.431C278.563 127.543 278.021 127.638 276.812 127.664C273.672 127.745 268.042 127.844 264.124 127.847C264.123 127.867 264.119 127.887 264.115 127.907L264.113 127.921C264.104 127.956 264.11 127.991 264.117 128.026C264.121 128.048 264.125 128.069 264.126 128.091C264.129 128.153 264.123 128.216 264.113 128.278C264.11 128.297 264.107 128.316 264.104 128.336L264.099 128.368L264.095 128.393C264.092 128.411 264.089 128.429 264.086 128.447C264.079 128.487 264.072 128.527 264.072 128.566C264.071 128.59 264.079 128.614 264.086 128.637C264.092 128.658 264.099 128.679 264.1 128.7C264.1 128.705 264.101 128.709 264.102 128.713C264.103 128.719 264.104 128.724 264.103 128.729C264.103 128.747 264.092 128.759 264.064 128.766C264.041 128.774 264.01 128.777 263.967 128.779C263.957 128.78 263.947 128.78 263.937 128.781C263.928 128.782 263.92 128.782 263.911 128.782C263.853 128.783 263.797 128.767 263.757 128.739C263.685 128.659 263.69 128.579 263.699 128.498L263.723 128.318L263.733 128.318L263.735 128.317C263.74 128.287 263.746 128.257 263.753 128.227C263.759 128.197 263.765 128.167 263.771 128.138C263.773 128.126 263.772 128.114 263.771 128.103C263.77 128.092 263.769 128.082 263.771 128.072L263.775 128.05C263.788 127.983 263.801 127.915 263.803 127.847C263.361 127.847 262.944 127.845 262.557 127.842C262.138 127.837 261.211 127.84 260.073 127.843C258.548 127.847 256.646 127.853 255.092 127.843L255.089 127.864C255.072 127.991 255.054 128.12 255.065 128.248C255.076 128.4 255.099 128.556 255.188 128.697C255.199 128.719 255.214 128.74 255.234 128.758C255.25 128.779 255.271 128.798 255.294 128.814L255.3 128.819C255.309 128.826 255.32 128.835 255.325 128.835C255.33 128.838 255.343 128.843 255.361 128.848C255.392 128.857 255.433 128.866 255.478 128.874C255.653 128.906 255.853 128.925 256.048 128.944C256.48 128.983 256.921 129.014 257.361 129.039C257.633 129.054 257.907 129.067 258.179 129.077L258.322 129.082L258.501 129.084C258.904 129.088 259.307 129.088 259.71 129.082C260.321 129.074 260.936 129.062 261.538 129.032C261.897 129.015 262.245 128.986 262.593 128.957C262.702 128.948 262.81 128.939 262.919 128.931C263.019 128.921 263.117 128.913 263.219 128.904C263.596 128.878 263.717 128.88 263.818 128.918C263.826 128.921 263.834 128.924 263.843 128.927C263.86 128.932 263.876 128.938 263.887 128.944C263.941 128.974 263.8 129.024 263.525 129.067C262.706 129.193 261.815 129.237 260.926 129.266C260.264 129.287 259.597 129.295 258.931 129.295L258.931 129.292C258.271 129.288 257.611 129.274 256.954 129.24L256.847 129.235C256.641 129.225 256.435 129.215 256.229 129.199C256.017 129.18 255.805 129.16 255.594 129.131C255.383 129.1 255.171 129.066 254.967 129C254.958 128.997 254.95 128.994 254.941 128.991C254.924 128.986 254.906 128.98 254.886 128.97L254.876 128.965C254.851 128.951 254.824 128.937 254.809 128.923L254.765 128.878C254.755 128.863 254.747 128.849 254.739 128.835C254.708 128.78 254.693 128.727 254.682 128.675C254.662 128.571 254.66 128.468 254.665 128.365C254.678 128.19 254.7 128.013 254.758 127.84C253.696 127.832 252.835 127.814 252.432 127.783C252.073 127.752 251.347 127.664 251.347 127.664C250.981 127.607 250.617 127.55 250.221 127.409C250.202 127.4 250.183 127.393 250.165 127.386C250.133 127.373 250.102 127.361 250.067 127.343L250.047 127.334C250.001 127.312 249.96 127.292 249.894 127.249C249.754 127.151 249.62 127.036 249.577 126.873C249.557 126.835 249.545 126.79 249.537 126.75C249.499 126.768 249.46 126.777 249.42 126.787C249.41 126.79 249.4 126.793 249.389 126.795C249.335 126.808 249.278 126.802 249.221 126.797L249.203 126.795C249.156 126.789 249.109 126.794 249.062 126.798C249.033 126.801 249.005 126.804 248.976 126.804C248.892 126.807 248.808 126.802 248.726 126.795C248.7 126.793 248.674 126.791 248.649 126.789C248.623 126.787 248.597 126.785 248.572 126.783C248.548 126.781 248.524 126.779 248.5 126.776C248.446 126.771 248.393 126.767 248.34 126.767C248.309 126.766 248.277 126.771 248.245 126.776C248.217 126.781 248.189 126.785 248.161 126.786C248.155 126.786 248.149 126.787 248.144 126.787C248.137 126.788 248.129 126.789 248.122 126.788C248.098 126.788 248.083 126.78 248.073 126.761C248.063 126.745 248.058 126.723 248.055 126.693C248.055 126.686 248.054 126.679 248.053 126.672C248.052 126.666 248.052 126.66 248.051 126.654C248.05 126.613 248.072 126.574 248.11 126.546C248.217 126.496 248.323 126.499 248.431 126.505L248.672 126.522L248.672 126.529L248.673 126.53C248.713 126.534 248.753 126.538 248.793 126.543C248.833 126.547 248.873 126.551 248.913 126.555C248.929 126.557 248.944 126.556 248.96 126.556C248.974 126.555 248.987 126.554 249.001 126.555L249.03 126.558C249.124 126.568 249.219 126.577 249.313 126.578C249.359 126.578 249.406 126.578 249.451 126.574C249.461 126.573 249.471 126.572 249.481 126.57C249.489 126.569 249.497 126.568 249.505 126.567L249.504 126.555L249.5 126.525C249.487 126.435 249.476 126.345 249.468 126.259C249.431 125.911 249.406 125.572 249.382 125.23L249.399 125.226L249.403 125.228C249.311 123.638 249.256 122.052 249.233 120.465C249.079 120.454 248.923 120.445 248.767 120.452C248.564 120.46 248.355 120.476 248.167 120.538C248.138 120.546 248.11 120.556 248.085 120.57C248.058 120.581 248.033 120.596 248.011 120.612L248.005 120.616C247.995 120.623 247.983 120.631 247.983 120.634C247.978 120.638 247.972 120.647 247.966 120.66C247.953 120.681 247.941 120.71 247.93 120.741C247.888 120.864 247.862 121.004 247.837 121.141C247.785 121.444 247.744 121.753 247.71 122.062C247.69 122.252 247.673 122.444 247.659 122.635C247.656 122.678 247.653 122.721 247.65 122.765L247.648 122.861C247.644 123.143 247.644 123.426 247.651 123.708C247.662 124.136 247.678 124.567 247.718 124.99C247.741 125.241 247.78 125.485 247.818 125.729C247.83 125.805 247.842 125.881 247.853 125.958C247.866 126.028 247.877 126.097 247.889 126.168C247.923 126.432 247.921 126.517 247.87 126.588C247.866 126.593 247.862 126.599 247.859 126.605C247.851 126.617 247.844 126.629 247.836 126.636C247.796 126.674 247.729 126.575 247.671 126.382C247.504 125.808 247.444 125.184 247.405 124.56C247.377 124.096 247.366 123.629 247.366 123.162L247.371 123.162C247.376 122.699 247.395 122.237 247.44 121.776L247.447 121.701C247.46 121.557 247.473 121.412 247.495 121.268C247.52 121.119 247.548 120.971 247.586 120.823C247.627 120.674 247.672 120.526 247.761 120.383C247.765 120.377 247.769 120.371 247.773 120.365C247.78 120.353 247.787 120.34 247.801 120.327L247.808 120.32C247.826 120.302 247.845 120.283 247.864 120.273L247.925 120.242C247.943 120.235 247.962 120.229 247.981 120.223C248.055 120.201 248.126 120.191 248.196 120.183C248.335 120.169 248.472 120.168 248.609 120.172C248.817 120.179 249.025 120.192 249.23 120.223C249.224 119.753 249.221 119.283 249.221 118.813C249.166 118.822 249.109 118.818 249.053 118.814L249.035 118.813C248.988 118.809 248.941 118.812 248.893 118.815C248.865 118.817 248.836 118.82 248.807 118.82C248.724 118.821 248.64 118.818 248.557 118.813C248.531 118.812 248.506 118.81 248.48 118.809C248.454 118.807 248.429 118.806 248.403 118.804C248.379 118.803 248.355 118.801 248.331 118.8C248.278 118.796 248.224 118.793 248.172 118.793C248.14 118.792 248.108 118.796 248.077 118.8C248.049 118.803 248.021 118.806 247.993 118.807C247.987 118.807 247.981 118.807 247.975 118.808C247.968 118.808 247.961 118.809 247.954 118.808C247.93 118.808 247.914 118.803 247.905 118.789C247.894 118.777 247.89 118.762 247.887 118.74C247.886 118.735 247.885 118.73 247.885 118.725C247.884 118.721 247.883 118.717 247.883 118.712C247.882 118.683 247.904 118.655 247.941 118.635C248.048 118.599 248.155 118.602 248.263 118.606L248.504 118.618L248.504 118.623L248.505 118.624C248.544 118.627 248.585 118.63 248.625 118.633C248.665 118.636 248.705 118.639 248.745 118.642C248.76 118.643 248.776 118.643 248.791 118.642C248.805 118.642 248.819 118.641 248.832 118.642L248.861 118.644C248.956 118.651 249.05 118.658 249.145 118.658C249.17 118.658 249.195 118.658 249.221 118.658C249.221 118.155 249.224 117.651 249.23 117.148C249.233 116.993 249.235 116.838 249.237 116.684L249.237 116.682C249.25 115.895 249.262 115.107 249.315 114.318L249.223 114.307L249.216 114.306L249.211 114.306C249.178 114.304 249.145 114.302 249.112 114.301C248.941 114.292 248.77 114.283 248.598 114.289C248.395 114.294 248.186 114.306 247.998 114.35C247.968 114.356 247.941 114.363 247.916 114.373C247.889 114.381 247.864 114.392 247.842 114.403L247.836 114.406C247.825 114.411 247.813 114.416 247.813 114.419C247.809 114.421 247.803 114.428 247.797 114.437C247.784 114.452 247.772 114.473 247.761 114.495C247.719 114.583 247.693 114.683 247.668 114.78C247.616 114.996 247.575 115.217 247.541 115.437C247.521 115.573 247.503 115.71 247.49 115.846C247.487 115.873 247.484 115.9 247.482 115.928L247.48 116.006C247.475 116.208 247.475 116.409 247.483 116.611C247.493 116.917 247.51 117.224 247.55 117.525C247.573 117.704 247.611 117.879 247.649 118.053C247.661 118.107 247.673 118.161 247.685 118.216C247.697 118.266 247.709 118.315 247.72 118.366C247.755 118.554 247.753 118.615 247.702 118.666C247.698 118.669 247.694 118.674 247.69 118.678C247.683 118.686 247.675 118.694 247.667 118.7C247.627 118.727 247.56 118.656 247.503 118.519C247.335 118.109 247.275 117.664 247.237 117.219C247.208 116.888 247.198 116.554 247.198 116.221L247.202 116.221C247.207 115.891 247.226 115.561 247.271 115.232L247.278 115.179C247.291 115.076 247.304 114.973 247.327 114.87C247.352 114.764 247.379 114.658 247.418 114.552C247.459 114.447 247.504 114.341 247.593 114.239C247.597 114.234 247.601 114.23 247.604 114.226C247.611 114.217 247.619 114.208 247.632 114.199L247.639 114.194C247.657 114.181 247.677 114.167 247.695 114.16L247.756 114.138C247.775 114.133 247.794 114.129 247.813 114.125C247.887 114.109 247.957 114.102 248.027 114.096C248.167 114.086 248.304 114.086 248.441 114.088C248.683 114.095 248.926 114.106 249.163 114.137C249.214 114.144 249.264 114.15 249.314 114.158L249.327 114.16C249.356 113.736 249.396 113.312 249.45 112.886L249.467 112.778C249.526 112.374 249.585 111.976 249.754 111.54C249.763 111.511 249.778 111.481 249.799 111.446L249.843 111.37C249.851 111.184 249.851 110.997 249.845 110.81C249.844 110.785 249.843 110.76 249.842 110.735C249.839 110.706 249.835 110.678 249.831 110.649C249.812 110.513 249.788 110.377 249.76 110.241C249.714 110.02 249.658 109.8 249.586 109.584C249.551 109.486 249.515 109.386 249.458 109.299C249.443 109.276 249.426 109.256 249.409 109.24C249.4 109.231 249.391 109.225 249.386 109.222C249.386 109.22 249.369 109.214 249.355 109.21L249.347 109.207C249.316 109.195 249.282 109.185 249.244 109.177C249.21 109.167 249.172 109.159 249.132 109.154C248.872 109.109 248.586 109.098 248.306 109.092C248.07 109.087 247.833 109.096 247.599 109.104C247.553 109.106 247.507 109.108 247.462 109.109L247.455 109.11L247.446 109.11L247.312 109.123C247.296 109.124 247.281 109.126 247.266 109.127L247.245 109.13L247.23 109.132L247.23 109.131C247.183 109.134 247.141 109.138 247.105 109.142C247.032 109.149 246.984 109.154 246.969 109.14L246.969 109.134C246.969 109.11 246.969 109.076 246.982 109.05C246.993 109.02 247.038 109.002 247.087 108.994L247.165 108.982L247.217 108.974L247.32 108.962C247.39 108.954 247.459 108.947 247.528 108.941C247.855 108.91 248.189 108.898 248.522 108.892C248.711 108.889 248.9 108.89 249.092 108.9C249.188 108.905 249.285 108.913 249.387 108.928C249.413 108.932 249.439 108.937 249.465 108.941L249.548 108.964C249.574 108.971 249.601 108.984 249.625 108.997L249.635 109.002C249.654 109.012 249.664 109.021 249.674 109.029C249.679 109.034 249.684 109.038 249.69 109.042C249.812 109.145 249.874 109.25 249.93 109.356C249.984 109.462 250.021 109.567 250.056 109.674C250.086 109.776 250.105 109.88 250.123 109.982L250.132 110.036C250.194 110.365 250.22 110.695 250.227 111.025Z" fill="#231F20"/>
<path d="M270.063 127.114C270.809 127.115 271.326 127.116 271.662 127.117C270.987 127.113 270.42 127.112 270.063 127.114Z" fill="#231F20"/>
<path d="M281.453 119.33C281.459 119.176 281.458 119.021 281.458 118.866C281.457 118.742 281.457 118.617 281.459 118.494C281.472 118.061 281.488 117.628 281.505 117.195C281.527 116.645 281.548 116.094 281.56 115.543C281.561 115.412 281.563 115.282 281.565 115.151L281.565 115.148C281.569 114.843 281.574 114.537 281.571 114.234C281.571 114.11 281.569 113.986 281.568 113.861L281.568 113.857C281.562 113.426 281.557 112.994 281.614 112.563C281.639 112.389 281.658 112.41 281.729 112.553C281.804 112.696 281.935 112.964 281.98 113.285C282.035 113.853 282.082 114.424 282.112 114.995C282.129 115.565 282.112 116.138 282.084 116.713C282.065 117.132 282.065 117.56 282.066 117.991C282.066 118.266 282.066 118.543 282.061 118.817C282.037 119.894 281.991 120.591 281.943 121.323C281.903 121.929 281.862 122.559 281.83 123.45C281.821 123.728 281.815 124.004 281.813 124.278C281.808 124.552 281.793 124.828 281.776 125.105C281.775 125.135 281.773 125.165 281.772 125.195C281.767 125.286 281.763 125.376 281.755 125.467C281.697 125.921 281.631 126.06 281.494 126.141L281.484 126.147L281.478 126.151L281.467 126.158L281.461 126.162C281.44 126.176 281.42 126.189 281.402 126.195C281.303 126.225 281.239 126.033 281.224 125.704C281.209 125.215 281.2 124.714 281.192 124.205C281.202 123.935 281.212 123.663 281.221 123.39C281.23 123.149 281.238 122.908 281.247 122.667C281.276 121.923 281.314 121.484 281.35 121.056C281.39 120.591 281.428 120.141 281.453 119.33Z" fill="#231F20"/>
<path fill-rule="evenodd" clip-rule="evenodd" d="M272.559 120.48C272.33 120.383 272.134 120.227 271.987 120.051C271.841 119.874 271.728 119.675 271.666 119.455C271.623 119.299 271.592 119.115 271.621 118.956C271.657 118.671 271.779 118.397 271.971 118.181C272.023 118.122 272.08 118.068 272.141 118.018C272.052 117.864 271.962 117.711 271.867 117.564C271.809 117.474 271.745 117.388 271.681 117.302C271.623 117.223 271.565 117.145 271.512 117.064C271.502 117.048 271.492 117.033 271.481 117.019C271.466 116.996 271.45 116.974 271.436 116.949C271.399 116.897 271.38 116.836 271.381 116.773C271.383 116.731 271.401 116.691 271.431 116.661C271.442 116.646 271.454 116.633 271.468 116.621C271.51 116.586 271.589 116.621 271.694 116.696C271.959 116.966 272.207 117.251 272.437 117.548C272.494 117.62 272.549 117.693 272.604 117.766C272.636 117.755 272.668 117.746 272.701 117.738C272.95 117.676 273.213 117.676 273.458 117.732C273.482 117.739 273.508 117.746 273.533 117.752C273.586 117.766 273.639 117.78 273.687 117.803C273.71 117.814 273.733 117.824 273.757 117.835C273.806 117.857 273.856 117.879 273.902 117.906C273.917 117.916 273.932 117.926 273.947 117.936C273.997 117.969 274.048 118.001 274.092 118.04L274.104 118.053C274.152 118.106 274.2 118.158 274.23 118.227C274.234 118.248 274.238 118.264 274.241 118.275C274.245 118.293 274.248 118.301 274.244 118.304C274.242 118.306 274.236 118.305 274.224 118.303C274.212 118.301 274.193 118.297 274.165 118.296C274.113 118.296 274.042 118.296 273.973 118.284C273.955 118.28 273.936 118.278 273.917 118.275C273.898 118.273 273.88 118.271 273.862 118.267C273.826 118.258 273.792 118.244 273.76 118.227C273.523 118.113 273.279 118.042 273.035 118.05C272.968 118.051 272.901 118.059 272.835 118.074C272.874 118.126 272.914 118.178 272.953 118.23L272.921 118.229L272.975 118.307C273.075 118.452 273.176 118.598 273.272 118.745C273.368 118.768 273.464 118.83 273.521 118.929C273.532 118.948 273.542 118.969 273.548 118.989L273.561 119.045C273.571 119.08 273.571 119.122 273.568 119.164L273.567 119.165L273.578 119.179L273.976 119.806C273.987 119.792 273.998 119.778 274.008 119.763C274.086 119.661 274.128 119.541 274.157 119.421C274.188 119.297 274.196 119.175 274.184 119.061C274.18 119.025 274.171 118.991 274.162 118.957C274.159 118.943 274.155 118.93 274.152 118.916C274.145 118.883 274.137 118.853 274.131 118.827C274.119 118.784 274.111 118.749 274.108 118.717C274.102 118.668 274.117 118.625 274.136 118.582C274.139 118.574 274.142 118.566 274.144 118.558C274.148 118.546 274.152 118.535 274.157 118.526C274.17 118.502 274.199 118.502 274.257 118.517C274.315 118.532 274.381 118.58 274.443 118.663C274.76 119.129 274.626 119.763 274.213 120.174C274.274 120.259 274.34 120.339 274.409 120.422L274.459 120.482C275.346 121.743 275.525 121.989 275.596 122.087C275.608 122.104 275.617 122.117 275.626 122.129C275.686 122.221 275.73 122.321 275.757 122.426C275.774 122.496 275.689 122.531 275.571 122.544C275.44 122.567 275.303 122.547 275.186 122.485C274.941 122.262 274.134 121.154 273.699 120.503C273.336 120.64 272.917 120.639 272.557 120.489L272.56 120.48L272.559 120.48ZM272.1 118.676C272.145 118.546 272.224 118.429 272.324 118.338L272.538 118.712C272.606 118.835 272.681 118.963 272.756 119.087C272.746 119.128 272.742 119.17 272.744 119.213C272.748 119.298 272.798 119.398 272.883 119.461C272.927 119.495 272.981 119.511 273.031 119.519C273.081 119.591 273.135 119.661 273.188 119.73C273.28 119.848 273.371 119.966 273.442 120.093C273.449 120.106 273.457 120.122 273.467 120.138C273.361 120.17 273.25 120.186 273.14 120.184C272.917 120.187 272.701 120.112 272.528 119.987C272.246 119.785 272.05 119.441 272.029 119.125C272.026 119.08 272.031 119.03 272.035 118.98C272.037 118.952 272.04 118.925 272.041 118.898C272.047 118.874 272.052 118.85 272.057 118.826C272.067 118.774 272.077 118.723 272.1 118.676Z" fill="#231F20"/>
<path fill-rule="evenodd" clip-rule="evenodd" d="M257.985 120.092C257.973 120.078 257.961 120.065 257.95 120.051C257.803 119.874 257.69 119.675 257.629 119.455C257.585 119.299 257.554 119.115 257.583 118.956C257.619 118.671 257.742 118.397 257.934 118.181C258.124 117.965 258.382 117.808 258.663 117.738C258.912 117.676 259.175 117.676 259.42 117.732C259.445 117.739 259.47 117.746 259.495 117.752C259.548 117.766 259.601 117.78 259.65 117.803C259.672 117.814 259.695 117.824 259.718 117.834C259.777 117.76 259.835 117.684 259.891 117.609C259.955 117.522 260.013 117.432 260.071 117.342C260.124 117.26 260.176 117.179 260.234 117.1C260.245 117.085 260.255 117.07 260.265 117.056C260.281 117.033 260.296 117.011 260.314 116.988C260.349 116.936 260.401 116.895 260.462 116.871C260.503 116.857 260.549 116.857 260.59 116.871C260.608 116.875 260.626 116.88 260.643 116.887C260.693 116.911 260.69 116.994 260.66 117.116C260.503 117.455 260.327 117.784 260.13 118.104L260.122 118.117C260.149 118.15 260.174 118.186 260.192 118.227C260.196 118.248 260.2 118.264 260.203 118.275C260.208 118.293 260.21 118.301 260.207 118.304C260.204 118.306 260.198 118.305 260.187 118.303C260.174 118.301 260.155 118.297 260.127 118.296C260.095 118.296 260.055 118.296 260.013 118.293C259.967 118.367 259.92 118.439 259.874 118.512C259.808 118.616 259.742 118.72 259.676 118.825L259.665 118.796L259.611 118.874C259.579 118.92 259.547 118.966 259.516 119.011L259.524 119.045C259.533 119.08 259.533 119.122 259.53 119.163C259.522 119.247 259.482 119.332 259.427 119.392L259.422 119.387L259.422 119.392C259.341 119.473 259.244 119.514 259.143 119.525C259.12 119.559 259.098 119.596 259.076 119.633C259.055 119.67 259.033 119.708 259.008 119.746L258.73 120.116C258.847 120.161 258.974 120.186 259.102 120.184C259.436 120.189 259.782 120.033 259.971 119.763C260.048 119.661 260.09 119.541 260.119 119.421C260.15 119.297 260.158 119.175 260.147 119.061C260.142 119.025 260.133 118.991 260.124 118.957C260.121 118.943 260.118 118.93 260.114 118.916C260.107 118.883 260.1 118.853 260.093 118.827C260.082 118.784 260.073 118.749 260.071 118.717C260.064 118.668 260.079 118.625 260.098 118.582C260.101 118.574 260.104 118.566 260.107 118.558C260.111 118.546 260.114 118.535 260.119 118.526C260.132 118.502 260.161 118.502 260.219 118.517C260.277 118.532 260.344 118.58 260.405 118.663C260.77 119.199 260.539 119.956 259.972 120.341C259.558 120.627 258.988 120.684 258.52 120.489L258.523 120.48L258.521 120.48C258.505 120.473 258.489 120.466 258.473 120.459L258.353 120.619C258.271 120.729 258.206 120.843 258.138 120.964C258.125 120.986 258.113 121.009 258.1 121.031C258.052 121.122 257.999 121.211 257.941 121.297C257.876 121.385 257.797 121.463 257.707 121.529C257.646 121.571 257.579 121.51 257.52 121.412C257.446 121.305 257.412 121.177 257.426 121.05C257.56 120.705 257.749 120.382 257.985 120.092ZM258.245 119.749C258.099 119.563 258.006 119.337 257.992 119.125C257.989 119.08 257.993 119.03 257.997 118.98C258 118.952 258.002 118.925 258.003 118.898C258.009 118.874 258.014 118.85 258.019 118.826C258.029 118.774 258.04 118.723 258.063 118.676C258.113 118.531 258.205 118.401 258.323 118.307C258.518 118.151 258.754 118.054 258.997 118.05C259.159 118.045 259.32 118.074 259.479 118.127C259.449 118.164 259.419 118.2 259.39 118.237L259.05 118.649C258.998 118.709 258.947 118.771 258.896 118.835C258.837 118.868 258.797 118.924 258.762 118.98C258.751 118.999 258.741 119.019 258.733 119.04C258.655 119.14 258.581 119.24 258.512 119.333C258.444 119.426 258.384 119.524 258.325 119.62C258.298 119.663 258.272 119.707 258.245 119.749Z" fill="#231F20"/>
<path d="M259.467 124.74C259.529 124.737 259.591 124.732 259.654 124.727C259.988 124.696 260.323 124.652 260.651 124.579C260.98 124.514 261.31 124.407 261.623 124.28C262.251 124.021 262.818 123.637 263.291 123.173C263.764 122.709 264.155 122.169 264.427 121.575L264.453 121.513C264.515 121.365 264.573 121.224 264.605 121.081L264.627 120.994C264.64 120.944 264.652 120.895 264.665 120.847C264.674 120.791 264.681 120.737 264.688 120.684C264.691 120.664 264.694 120.644 264.696 120.624C264.717 120.482 264.727 120.352 264.713 120.235C264.712 120.215 264.711 120.196 264.711 120.178C264.707 120.086 264.703 120.006 264.682 119.937C264.662 119.844 264.654 119.775 264.648 119.731C264.644 119.698 264.642 119.679 264.638 119.676C264.631 119.671 264.609 119.754 264.562 119.937C264.383 121.113 263.795 122.228 262.888 123.042C262.181 123.673 261.286 124.12 260.32 124.273C259.777 124.365 259.226 124.404 258.676 124.378C258.128 124.345 257.585 124.251 257.066 124.09C256.022 123.777 255.101 123.138 254.475 122.301C254.12 121.826 253.864 121.281 253.709 120.712C253.288 119.149 253.68 117.417 254.719 116.153L254.717 116.15L254.725 116.154C254.986 115.836 255.272 115.536 255.603 115.284C255.724 115.18 255.858 115.091 255.991 115.003C256.031 114.976 256.072 114.949 256.111 114.922C256.164 114.883 256.223 114.852 256.281 114.821C256.315 114.803 256.349 114.785 256.382 114.766C256.416 114.749 256.448 114.73 256.481 114.711C256.539 114.678 256.597 114.645 256.659 114.621L256.946 114.494C257.007 114.464 257.07 114.443 257.134 114.422C257.17 114.41 257.205 114.398 257.24 114.385C257.389 114.326 257.543 114.287 257.697 114.248C257.746 114.235 257.795 114.223 257.843 114.21C257.908 114.194 257.973 114.183 258.038 114.172C258.076 114.166 258.114 114.16 258.152 114.153C258.255 114.134 258.36 114.116 258.464 114.11L258.777 114.082L259.091 114.08C260.22 114.089 261.326 114.475 262.203 115.127C263.072 115.795 263.809 116.648 264.114 117.627C264.124 117.661 264.135 117.695 264.145 117.728C264.159 117.774 264.173 117.818 264.183 117.861C264.192 117.895 264.201 117.928 264.209 117.96C264.218 117.997 264.227 118.034 264.237 118.068C264.253 118.153 264.272 118.23 264.289 118.296C264.297 118.331 264.305 118.363 264.312 118.392C264.353 118.564 264.393 118.642 264.432 118.594C264.448 118.575 264.464 118.538 264.479 118.5C264.486 118.484 264.493 118.468 264.5 118.453C264.553 118.343 264.58 118.205 264.563 117.967C264.557 117.908 264.548 117.843 264.539 117.77C264.528 117.705 264.511 117.636 264.493 117.56L264.487 117.532C264.472 117.47 264.45 117.405 264.428 117.336C264.418 117.308 264.409 117.279 264.399 117.249C264.387 117.22 264.375 117.19 264.363 117.159C264.334 117.083 264.302 117.003 264.261 116.921C264.145 116.667 263.998 116.437 263.836 116.213C263.653 115.958 263.447 115.722 263.226 115.5C263.117 115.39 263.002 115.284 262.886 115.181C262.813 115.115 262.735 115.054 262.657 114.993C262.611 114.957 262.565 114.921 262.519 114.884C262.017 114.505 261.447 114.204 260.835 114.003C260.049 113.735 259.193 113.664 258.361 113.755C257.527 113.852 256.721 114.141 256.008 114.56C255.966 114.585 255.925 114.611 255.884 114.637C254.939 115.144 253.895 116.042 253.271 117.663C252.438 119.824 253.047 123.017 256.458 124.243C256.842 124.401 257.24 124.521 257.641 124.604C258.218 124.728 258.812 124.772 259.401 124.744C259.505 124.746 259.61 124.747 259.718 124.747L259.716 124.746L259.467 124.74Z" fill="#231F20"/>
<path d="M256.464 115.685C256.075 115.941 255.72 116.252 255.436 116.619L255.403 116.664C255.364 116.717 255.325 116.77 255.289 116.825C255.245 116.897 255.202 116.969 255.156 117.04C255.004 117.295 254.879 117.563 254.778 117.843C254.686 118.124 254.614 118.413 254.574 118.708C254.558 118.816 254.552 118.926 254.545 119.035L254.541 119.103C254.541 119.136 254.541 119.169 254.541 119.203C254.542 119.302 254.542 119.401 254.547 119.499C254.558 119.669 254.57 119.837 254.594 120.005C254.6 120.044 254.604 120.083 254.607 120.123C254.612 120.168 254.616 120.213 254.623 120.257L254.627 120.289C254.638 120.363 254.648 120.437 254.632 120.516C254.611 120.574 254.6 120.6 254.594 120.599C254.591 120.599 254.587 120.595 254.581 120.587C254.572 120.576 254.558 120.558 254.533 120.537C254.449 120.46 254.336 120.306 254.302 120.104C254.162 119.396 254.191 118.643 254.426 117.943C254.565 117.526 254.736 117.098 254.987 116.717C255.259 116.298 255.616 115.935 256.015 115.631C256.264 115.445 256.531 115.284 256.81 115.147C257.234 114.942 257.689 114.795 258.151 114.708C258.51 114.64 258.87 114.594 259.238 114.598C259.268 114.6 259.298 114.6 259.328 114.6C259.378 114.601 259.428 114.601 259.479 114.606C259.781 114.636 259.872 114.686 259.912 114.785L259.916 114.794L259.921 114.803C259.928 114.819 259.936 114.835 259.939 114.85C259.95 114.918 259.82 114.953 259.617 114.935C259.011 114.894 258.371 114.944 257.756 115.115C257.299 115.237 256.861 115.436 256.467 115.693L256.462 115.687L256.464 115.685Z" fill="#231F20"/>
<path d="M273.739 124.727C273.677 124.733 273.615 124.737 273.552 124.74L273.803 124.746L273.804 124.748C273.697 124.748 273.591 124.746 273.486 124.744C272.898 124.772 272.303 124.728 271.726 124.605C271.324 124.521 270.924 124.4 270.54 124.241C267.133 123.014 266.525 119.824 267.357 117.663C267.98 116.045 269.023 115.147 269.966 114.64C270.008 114.613 270.051 114.586 270.094 114.56C270.807 114.142 271.612 113.852 272.447 113.756C273.279 113.664 274.135 113.735 274.921 114.004C275.533 114.204 276.103 114.505 276.605 114.884C276.65 114.921 276.696 114.958 276.743 114.994C276.821 115.055 276.899 115.115 276.971 115.181C277.088 115.284 277.203 115.391 277.312 115.501C277.533 115.722 277.739 115.958 277.922 116.213C278.083 116.437 278.23 116.668 278.347 116.921C278.388 117.003 278.419 117.084 278.449 117.159C278.461 117.19 278.473 117.22 278.485 117.249C278.494 117.279 278.504 117.308 278.513 117.336C278.536 117.406 278.557 117.47 278.572 117.532L278.579 117.56C278.597 117.636 278.613 117.706 278.624 117.771C278.634 117.844 278.642 117.909 278.649 117.968C278.666 118.205 278.639 118.343 278.585 118.453C278.579 118.468 278.572 118.484 278.565 118.501C278.549 118.538 278.534 118.575 278.518 118.594C278.479 118.642 278.439 118.564 278.397 118.393C278.391 118.364 278.383 118.332 278.374 118.297L278.374 118.296C278.358 118.23 278.339 118.154 278.322 118.068C278.313 118.034 278.304 117.998 278.294 117.96C278.286 117.928 278.278 117.895 278.269 117.861C278.258 117.818 278.245 117.774 278.231 117.729C278.22 117.696 278.21 117.662 278.2 117.627C277.894 116.648 277.158 115.795 276.289 115.128C275.412 114.475 274.306 114.09 273.177 114.08L272.863 114.083L272.55 114.11C272.445 114.116 272.341 114.135 272.238 114.153C272.2 114.16 272.162 114.167 272.124 114.173C272.059 114.183 271.993 114.194 271.929 114.21C271.88 114.223 271.831 114.236 271.782 114.248C271.628 114.288 271.474 114.327 271.326 114.385C271.291 114.398 271.255 114.41 271.22 114.422C271.156 114.443 271.092 114.465 271.031 114.494L270.745 114.621C270.682 114.646 270.625 114.679 270.567 114.712C270.534 114.73 270.501 114.749 270.467 114.766C270.435 114.786 270.401 114.804 270.367 114.822C270.308 114.853 270.25 114.884 270.197 114.923C270.157 114.95 270.117 114.976 270.077 115.003C269.943 115.091 269.81 115.18 269.689 115.284C269.358 115.537 269.072 115.837 268.811 116.154L268.802 116.151L268.805 116.153C267.765 117.417 267.374 119.149 267.795 120.713C267.95 121.281 268.206 121.826 268.561 122.301C269.187 123.139 270.107 123.777 271.151 124.09C271.67 124.251 272.214 124.345 272.762 124.379C273.311 124.404 273.863 124.366 274.405 124.273C275.372 124.12 276.267 123.673 276.974 123.043C277.881 122.228 278.469 121.113 278.647 119.937C278.695 119.754 278.716 119.671 278.724 119.677C278.727 119.679 278.73 119.698 278.734 119.731C278.739 119.775 278.748 119.844 278.767 119.937C278.789 120.007 278.792 120.087 278.796 120.178L278.797 120.205L278.799 120.235C278.812 120.352 278.803 120.482 278.782 120.625C278.779 120.644 278.777 120.664 278.774 120.685C278.767 120.737 278.76 120.792 278.75 120.847C278.738 120.895 278.726 120.944 278.713 120.994L278.691 121.081C278.659 121.224 278.6 121.366 278.539 121.513L278.513 121.576C278.241 122.169 277.849 122.709 277.376 123.174C276.903 123.637 276.337 124.022 275.709 124.28C275.396 124.408 275.066 124.514 274.736 124.579C274.409 124.652 274.074 124.696 273.739 124.727Z" fill="#231F20"/>
<path d="M269.393 116.745C269.606 116.452 269.869 116.196 270.151 115.964L270.157 115.969C270.437 115.731 270.758 115.534 271.091 115.37C271.424 115.206 271.777 115.079 272.14 114.999C273.116 114.764 274.148 114.886 275.009 115.275C275.067 115.297 275.118 115.32 275.165 115.34C275.239 115.374 275.3 115.401 275.353 115.41C275.437 115.43 275.486 115.424 275.487 115.386C275.488 115.369 275.481 115.349 275.475 115.329L275.472 115.318C275.47 115.313 275.469 115.308 275.467 115.304C275.436 115.181 275.328 115.066 274.895 114.876C274.861 114.864 274.828 114.851 274.795 114.839C274.71 114.807 274.626 114.776 274.538 114.753C273.988 114.59 273.413 114.542 272.841 114.584C272.472 114.612 272.106 114.684 271.75 114.787C271.394 114.89 271.054 115.042 270.73 115.215C270.306 115.45 269.909 115.736 269.567 116.078C269.295 116.358 269.053 116.666 268.851 116.999C268.657 117.335 268.501 117.692 268.39 118.062C268.299 118.402 268.239 118.753 268.23 119.105C268.222 119.456 268.241 119.807 268.307 120.147C268.509 121.283 269.207 122.343 270.233 122.96C270.522 123.136 270.817 123.191 270.981 123.18C271.028 123.178 271.062 123.181 271.083 123.183C271.099 123.184 271.108 123.185 271.11 123.183C271.115 123.178 271.085 123.15 271.017 123.091C271.002 123.074 270.984 123.065 270.966 123.056C270.953 123.05 270.941 123.043 270.929 123.034C270.918 123.028 270.907 123.021 270.896 123.014C270.878 123.002 270.86 122.991 270.841 122.982C270.794 122.959 270.749 122.933 270.704 122.907L270.662 122.884C270.545 122.816 270.43 122.743 270.318 122.667C270.095 122.514 269.885 122.341 269.697 122.15C269.553 122 269.413 121.842 269.29 121.672C269.167 121.501 269.058 121.322 268.963 121.136C268.76 120.715 268.618 120.266 268.562 119.807C268.505 119.348 268.528 118.883 268.625 118.432C268.685 118.177 268.749 117.923 268.853 117.681C268.986 117.346 269.177 117.035 269.393 116.745Z" fill="#231F20"/>
<path d="M279.709 126.901C279.659 126.924 279.609 126.946 279.559 126.969C279.509 126.992 279.459 127.014 279.41 127.037C279.39 127.046 279.372 127.057 279.354 127.068C279.338 127.077 279.322 127.087 279.305 127.095L279.269 127.111C279.152 127.165 279.034 127.219 278.921 127.28C278.866 127.31 278.81 127.341 278.759 127.375C278.747 127.382 278.736 127.39 278.725 127.397C278.704 127.412 278.682 127.427 278.657 127.439C278.619 127.456 278.58 127.47 278.539 127.483C278.514 127.49 278.504 127.474 278.504 127.441C278.505 127.41 278.508 127.354 278.535 127.313C278.577 127.257 278.63 127.214 278.684 127.169C278.695 127.16 278.706 127.151 278.716 127.142C278.775 127.096 278.846 127.063 278.916 127.03L278.938 127.02C278.998 126.995 279.051 126.96 279.105 126.924C279.138 126.903 279.17 126.882 279.205 126.863C279.303 126.805 279.405 126.754 279.508 126.706C279.539 126.691 279.571 126.676 279.603 126.661C279.634 126.646 279.666 126.631 279.698 126.616C279.727 126.601 279.757 126.588 279.787 126.574C279.853 126.543 279.919 126.512 279.982 126.477C280.02 126.457 280.055 126.432 280.09 126.407C280.121 126.384 280.152 126.362 280.185 126.343C280.192 126.339 280.199 126.335 280.205 126.33C280.213 126.325 280.221 126.319 280.23 126.315C280.259 126.3 280.282 126.296 280.303 126.307C280.324 126.314 280.34 126.33 280.36 126.354C280.364 126.36 280.369 126.365 280.374 126.371C280.378 126.375 280.382 126.38 280.385 126.385C280.408 126.42 280.402 126.468 280.372 126.517C280.271 126.631 280.142 126.698 280.01 126.764L279.714 126.907L279.711 126.902L279.709 126.901Z" fill="#231F20"/>
<path d="M280.581 104.957C280.592 105.033 280.522 105.073 280.409 105.099C280.376 105.117 280.276 105.08 280.266 105.058C280.249 105.015 280.235 104.971 280.224 104.926C280.212 104.905 280.271 104.514 280.283 104.381C280.3 104.252 280.329 104.125 280.368 104C280.438 103.752 280.51 103.5 280.587 103.252C280.603 103.196 280.625 103.142 280.652 103.09C280.744 102.912 280.817 102.726 280.87 102.534C280.884 102.504 280.89 102.471 280.888 102.438C280.934 102.223 281.006 102.013 281.103 101.814C281.201 101.665 281.286 101.514 281.379 101.364C281.391 101.343 281.394 101.317 281.422 101.302C281.472 101.271 281.509 101.225 281.525 101.17C281.56 101.104 281.601 101.041 281.647 100.981C281.676 100.952 281.707 100.925 281.74 100.901C281.773 100.883 281.807 100.909 281.809 100.923C281.811 100.936 281.849 100.942 281.87 100.946C281.874 100.951 281.877 100.956 281.879 100.962C281.888 101.126 281.882 101.29 281.861 101.454C281.861 101.454 281.817 101.61 281.77 101.767C281.723 101.924 281.676 102.091 281.669 102.121C281.656 102.156 281.638 102.189 281.615 102.219C281.601 102.227 281.475 102.706 281.466 102.723C281.44 102.822 281.397 102.915 281.337 103C281.326 103.012 281.318 103.027 281.313 103.043C281.264 103.207 281.195 103.368 281.129 103.53C281.097 103.613 281.074 103.7 281.05 103.785L281.026 103.829C281.015 103.845 281.005 103.863 280.999 103.882C280.943 104.087 280.859 104.282 280.814 104.489C280.805 104.536 280.691 104.748 280.688 104.801C280.685 104.853 280.587 104.936 280.581 104.957Z" fill="#221F1F"/>
<path d="M285.344 110.07C285.322 110.106 285.279 110.081 285.209 110.027C285.181 109.999 285.161 109.965 285.149 109.928C285.158 109.9 285.169 109.872 285.181 109.845C285.195 109.837 285.369 109.694 285.426 109.648C285.485 109.607 285.548 109.572 285.615 109.545L286.003 109.366C286.032 109.354 286.064 109.346 286.096 109.344C286.204 109.331 286.309 109.301 286.406 109.255C286.425 109.251 286.442 109.241 286.456 109.228C286.558 109.167 286.669 109.122 286.786 109.095C286.888 109.095 286.989 109.09 287.09 109.079C287.09 109.079 287.113 109.066 287.133 109.082C287.152 109.099 287.198 109.098 287.227 109.094C287.269 109.085 287.313 109.085 287.355 109.093C287.38 109.098 287.404 109.107 287.427 109.119C287.449 109.125 287.453 109.162 287.454 109.164C287.455 109.166 287.47 109.191 287.478 109.205C287.483 109.209 287.486 109.215 287.488 109.22C287.461 109.259 287.432 109.296 287.401 109.331C287.369 109.369 287.333 109.404 287.293 109.434L286.959 109.618C286.941 109.627 286.92 109.629 286.901 109.625C286.901 109.625 286.665 109.754 286.64 109.75C286.586 109.764 286.543 109.803 286.474 109.781C286.469 109.782 286.464 109.783 286.459 109.786C286.455 109.788 286.451 109.791 286.448 109.795C286.361 109.828 286.27 109.852 286.178 109.868C286.132 109.881 286.086 109.897 286.041 109.916L286.013 109.916L285.987 109.931C285.878 109.963 285.772 110.001 285.668 110.045C285.644 110.058 285.513 110.07 285.491 110.085C285.469 110.1 285.352 110.057 285.344 110.07Z" fill="#221F1F"/>
<path d="M282.396 108.019C282.392 108.035 282.384 108.049 282.373 108.061C282.362 108.072 282.348 108.081 282.333 108.087C282.293 108.097 282.253 108.103 282.212 108.105C282.18 108.108 282.101 108.082 282.103 108.054C282.104 108.003 282.111 107.954 282.124 107.905C282.129 107.872 282.347 107.535 282.42 107.422C282.49 107.314 282.569 107.211 282.655 107.114C282.826 106.913 282.998 106.714 283.178 106.529C283.218 106.486 283.261 106.446 283.308 106.41C283.465 106.284 283.609 106.143 283.738 105.989C283.763 105.967 283.783 105.939 283.797 105.909C283.932 105.735 284.083 105.572 284.247 105.421C284.391 105.318 284.525 105.206 284.678 105.095C284.695 105.075 284.719 105.062 284.746 105.058C284.803 105.049 284.855 105.021 284.892 104.978C284.949 104.928 285.009 104.882 285.073 104.84C285.109 104.821 285.148 104.806 285.189 104.798C285.222 104.78 285.259 104.843 285.255 104.857C285.251 104.871 285.281 104.9 285.31 104.911C285.315 104.919 285.319 104.926 285.323 104.934C285.256 105.083 285.176 105.226 285.086 105.363L284.619 105.891C284.593 105.919 284.563 105.943 284.53 105.963C284.516 105.971 284.193 106.351 284.178 106.362C284.111 106.442 284.03 106.511 283.94 106.567C283.923 106.578 283.908 106.592 283.895 106.607C283.774 106.739 283.641 106.857 283.511 106.979C283.445 107.042 283.388 107.109 283.317 107.178C283.302 107.187 283.287 107.195 283.272 107.202L283.217 107.232C283.072 107.386 282.91 107.529 282.779 107.696C282.748 107.734 282.571 107.873 282.528 107.926C282.485 107.98 282.401 107.996 282.396 108.019Z" fill="#221F1F"/>
</svg>
