<svg width="341" height="191" viewBox="0 0 341 191" fill="none" xmlns="http://www.w3.org/2000/svg">
<rect x="1.42184" y="0.421836" width="339.156" height="187.295" rx="6.32754" fill="white"/>
<rect x="1.42184" y="0.421836" width="339.156" height="187.295" rx="6.32754" stroke="#E6E8EB" stroke-width="0.843672"/>
<rect x="1.13277" y="0.423789" width="339.156" height="189.826" rx="6.32754" fill="white" stroke="#E6E8EB" stroke-width="0.843672"/>
<line x1="0.710938" y1="19.8282" x2="340.711" y2="19.8282" stroke="#E6E8EB" stroke-width="0.843672"/>
<line x1="107.437" y1="0.00195311" x2="107.437" y2="190.672" stroke="#E6E8EB" stroke-width="0.843672"/>
<line x1="213.734" y1="0.00195311" x2="213.734" y2="190.672" stroke="#E6E8EB" stroke-width="0.843672"/>
<line x1="320.039" y1="0.00195311" x2="320.039" y2="190.672" stroke="#E6E8EB" stroke-width="0.843672"/>
<line x1="23.0703" y1="0.00195311" x2="23.0703" y2="190.672" stroke="#E6E8EB" stroke-width="0.843672"/>
<line x1="128.531" y1="0.00195311" x2="128.531" y2="190.672" stroke="#E6E8EB" stroke-width="0.843672"/>
<line x1="234.828" y1="0.00195311" x2="234.828" y2="190.672" stroke="#E6E8EB" stroke-width="0.843672"/>
<line x1="86.3437" y1="0.00195311" x2="86.3437" y2="190.672" stroke="#E6E8EB" stroke-width="0.843672"/>
<line x1="192.648" y1="0.00195311" x2="192.648" y2="190.672" stroke="#E6E8EB" stroke-width="0.843672"/>
<line x1="298.945" y1="0.00195311" x2="298.945" y2="190.672" stroke="#E6E8EB" stroke-width="0.843672"/>
<line x1="65.25" y1="0.00195311" x2="65.25" y2="190.672" stroke="#E6E8EB" stroke-width="0.843672"/>
<line x1="171.555" y1="0.00195311" x2="171.555" y2="190.672" stroke="#E6E8EB" stroke-width="0.843672"/>
<line x1="277.859" y1="0.00195311" x2="277.859" y2="190.672" stroke="#E6E8EB" stroke-width="0.843672"/>
<line x1="44.1562" y1="0.00195311" x2="44.1562" y2="190.672" stroke="#E6E8EB" stroke-width="0.843672"/>
<line x1="150.461" y1="0.00195311" x2="150.461" y2="190.672" stroke="#E6E8EB" stroke-width="0.843672"/>
<line x1="255.922" y1="0.00195311" x2="255.922" y2="190.672" stroke="#E6E8EB" stroke-width="0.843672"/>
<line x1="0.710938" y1="62.8555" x2="340.711" y2="62.8555" stroke="#E6E8EB" stroke-width="0.843672"/>
<line x1="0.710938" y1="105.039" x2="340.711" y2="105.039" stroke="#E6E8EB" stroke-width="0.843672"/>
<line x1="0.710938" y1="147.223" x2="340.711" y2="147.223" stroke="#E6E8EB" stroke-width="0.843672"/>
<line x1="0.710938" y1="40.92" x2="340.711" y2="40.92" stroke="#E6E8EB" stroke-width="0.843672"/>
<line x1="0.710938" y1="83.9473" x2="340.711" y2="83.9473" stroke="#E6E8EB" stroke-width="0.843672"/>
<line x1="0.710938" y1="126.131" x2="340.711" y2="126.131" stroke="#E6E8EB" stroke-width="0.843672"/>
<line x1="0.710938" y1="168.314" x2="340.711" y2="168.314" stroke="#E6E8EB" stroke-width="0.843672"/>
<g opacity="0.45">
<path d="M152.932 119.111C153.496 118.572 154.282 118.638 154.852 119.123C155.038 119.273 155.098 119.842 154.972 119.95C154.708 120.159 154.492 120.399 154.294 120.603C154.234 120.662 153.64 121.034 153.196 121.711C152.728 122.37 152.41 123.31 152.29 123.801C152.17 124.28 152.062 124.765 151.96 125.263L151.816 125.987C151.762 126.263 151.72 126.55 151.642 126.802C151.564 127.054 151.438 127.263 151.3 127.425C151.222 127.497 151.174 127.593 151.06 127.629C151 127.73 150.892 127.736 150.814 127.796C150.61 128.006 150.094 127.934 149.692 127.964C149.423 127.916 149.153 127.922 148.919 127.928H148.721L148.559 127.952C148.343 127.97 148.121 127.994 147.899 128.036C147.455 128.102 147.005 128.21 146.567 128.335C145.685 128.587 144.833 128.94 144.071 129.378C143.873 129.479 143.699 129.593 143.513 129.701C143.321 129.803 143.141 129.917 142.967 130.03C142.349 130.408 141.803 130.893 141.437 131.474C141.059 132.031 140.873 132.636 140.873 133.217C140.849 133.409 140.891 133.6 140.987 133.762C141.095 133.888 141.275 134.625 141.953 135.062C142.577 135.547 143.651 135.697 143.891 135.727C145.073 135.984 146.555 135.858 147.857 135.523C148.049 135.475 148.229 135.367 148.433 135.385C148.919 135.433 149.303 135.194 149.704 134.996C150.268 134.708 150.832 134.421 151.414 134.127C151.702 133.99 152.038 133.924 152.362 133.834C152.656 133.756 152.728 134.133 152.662 134.223C152.482 134.481 152.77 134.487 152.878 134.589C152.914 134.625 152.962 134.672 152.968 134.714C152.98 134.756 152.29 135.451 151.492 136.128C150.706 136.817 149.74 137.452 149.524 137.536C149.5 137.548 149.141 137.727 148.577 137.949C148.013 138.176 147.233 138.416 146.447 138.578C146.039 138.644 145.631 138.722 145.229 138.775C144.821 138.805 144.425 138.835 144.071 138.847C143.705 138.829 143.387 138.817 143.135 138.805C142.877 138.781 142.685 138.74 142.589 138.728C142.385 138.698 142.187 138.65 141.989 138.578C141.797 138.488 141.599 138.398 141.407 138.314C141.383 138.308 141.281 138.266 141.113 138.206C140.951 138.123 140.729 138.015 140.471 137.883C140.207 137.757 139.937 137.524 139.637 137.308C139.361 137.056 139.055 136.781 138.821 136.451C138.299 135.811 138.011 135.02 137.861 134.415C137.741 133.804 137.705 133.367 137.723 133.307C137.741 132.049 138.089 130.767 138.881 129.911C139.037 129.749 139.151 129.557 139.271 129.366C140.393 127.802 141.995 126.79 143.597 126.125C144.425 125.784 145.247 125.448 146.111 125.245C146.267 125.203 146.429 125.197 146.591 125.179C146.795 125.155 146.993 125.137 147.191 125.107C147.521 125.053 147.845 124.993 148.187 124.969C148.355 124.957 148.523 124.933 148.697 124.933H148.817C148.877 124.933 148.967 124.981 149.009 124.945C149.027 124.885 149.039 124.819 149.057 124.747L149.237 123.987C149.321 123.639 149.417 123.298 149.524 122.945C149.596 122.711 149.896 122.064 150.304 121.441C150.7 120.812 151.222 120.237 151.42 120.004C151.522 119.866 151.846 119.662 152.176 119.5C152.506 119.333 152.842 119.207 152.95 119.105L152.932 119.111Z" fill="#231F20"/>
</g>
<path d="M145.444 140.172C143.284 140.339 140.938 139.956 139.019 138.584C138.077 137.913 137.291 137.039 136.733 136.015C136.169 135.002 135.851 133.78 135.947 132.595C136.025 130.929 136.667 129.27 137.735 128.03C138.527 127.096 139.486 126.341 140.53 125.796C141.574 125.245 142.672 124.82 143.818 124.61C144.964 124.395 146.134 124.323 147.31 124.454L147.748 124.532C147.874 124.556 148.096 124.592 148.078 124.598C148.186 124.616 148.288 124.664 148.402 124.7L148.57 124.754C148.63 124.766 148.69 124.724 148.69 124.664C148.702 124.556 148.702 124.442 148.732 124.329L148.756 124.209C148.756 124.209 148.762 124.161 148.762 124.173L148.804 124.017C148.858 123.814 148.906 123.604 148.984 123.412C149.122 123.011 149.29 122.628 149.488 122.262C150.652 120.1 152.794 118.405 155.326 118.141C156.946 117.997 158.547 118.507 159.813 119.447C159.975 119.555 160.125 119.693 160.269 119.824C160.419 119.95 160.557 120.094 160.689 120.244C160.947 120.549 161.163 120.891 161.337 121.244C161.691 121.957 161.871 122.753 161.793 123.52C161.571 124.466 161.571 124.275 161.379 123.544C161.223 123.191 161.037 122.705 160.623 122.28C160.539 122.166 160.419 122.071 160.305 121.969C160.197 121.861 160.077 121.765 159.939 121.675C159.813 121.579 159.693 121.478 159.531 121.412C159.411 121.304 159.279 121.208 159.141 121.118C158.385 120.573 157.444 120.268 156.556 120.19C156.106 120.19 155.674 120.166 155.26 120.244C154.834 120.327 154.402 120.447 154 120.651C153.19 121.04 152.452 121.651 151.894 122.4C151.618 122.771 151.366 123.173 151.186 123.598C151.084 123.808 151.018 124.029 150.946 124.245L150.856 124.574C150.814 124.766 150.814 124.874 150.79 125.017L150.742 125.425C150.718 125.563 150.706 125.73 150.67 125.844L150.514 126.132C150.4 126.317 150.346 126.539 150.172 126.665C150.082 126.743 149.968 126.808 149.866 126.85C149.812 126.868 149.782 126.892 149.716 126.886L149.53 126.868L148.798 126.802L148.438 126.766L148.258 126.749L148.048 126.683C147.976 126.665 147.916 126.635 147.832 126.623L147.64 126.587L147.442 126.545C147.184 126.473 146.908 126.449 146.632 126.419C143.548 126.084 139.966 127.779 138.575 130.51C138.167 131.247 138.029 132.097 137.975 132.918C137.963 133.709 138.221 134.517 138.659 135.236C139.54 136.704 141.118 137.68 142.888 137.979C145.072 138.369 147.442 137.901 149.53 136.937C150.142 136.65 150.736 136.314 151.3 135.943C151.582 135.757 151.858 135.559 152.128 135.35C152.266 135.248 152.392 135.14 152.524 135.032C152.578 134.99 152.692 134.889 152.782 134.805L153.07 134.541C153.22 134.403 153.376 134.332 153.526 134.224C153.67 134.11 153.844 134.044 154.036 134.086C154.126 134.104 154.192 134.146 154.24 134.194L154.45 134.338C154.618 134.451 154.78 134.577 154.93 134.733L155.134 134.865C155.182 134.901 155.248 134.931 155.302 134.96C155.416 135.02 155.524 135.086 155.644 135.146C155.884 135.26 156.118 135.38 156.37 135.47C157.354 135.865 158.403 136.128 159.441 136.2C160.761 136.296 162.063 136.009 163.101 135.356C163.377 135.218 163.587 134.978 163.833 134.799C164.055 134.601 164.241 134.385 164.403 134.14C164.733 133.661 164.955 133.104 165.069 132.523C165.171 132.014 165.171 131.504 165.117 130.995C164.979 130.061 164.697 129.528 164.529 129.12C164.451 128.911 164.373 128.749 164.337 128.575C164.319 128.384 164.307 128.21 164.295 128.042C164.289 127.887 164.235 127.713 164.235 127.593C164.235 127.395 164.451 127.377 164.973 127.509C165.231 127.569 165.513 127.749 165.789 128.018C166.071 128.288 166.359 128.653 166.587 129.108C167.289 130.474 167.361 132.097 166.923 133.595C166.695 134.344 166.341 135.074 165.807 135.715C165.537 136.033 165.237 136.338 164.925 136.56L164.457 136.925C164.295 137.045 164.115 137.129 163.941 137.231C162.543 138.027 160.911 138.303 159.405 138.213C157.888 138.111 156.448 137.734 155.08 137.123C154.834 137.015 154.588 136.895 154.342 136.751C154.228 136.692 154.078 136.608 153.982 136.542C153.97 136.53 153.982 136.542 153.976 136.536C153.976 136.536 153.964 136.548 153.988 136.524L153.88 136.614C153.724 136.745 153.568 136.877 153.4 137.003C153.076 137.261 152.74 137.494 152.398 137.728C151.714 138.183 150.988 138.578 150.238 138.92C148.738 139.597 147.136 140.052 145.462 140.202L145.45 140.148L145.444 140.172Z" fill="#231F20"/>
<path d="M217.581 33.9557C217.872 33.992 218.145 34.0888 218.333 34.2582C218.514 34.4458 218.648 34.6757 218.72 34.9237C218.769 35.081 218.545 35.3654 218.405 35.3473C218.127 35.3231 217.884 35.2505 217.63 35.2686C217.557 35.2686 216.969 35.0871 216.32 35.2686C215.666 35.4078 214.993 35.8676 214.684 36.1338C214.072 36.642 213.502 37.235 213.012 37.8945C212.757 38.2273 212.545 38.5782 212.369 38.9291C212.296 39.0985 212.212 39.274 212.175 39.4192L212.066 39.7701C212.024 39.9153 211.969 40.0605 211.902 40.2057C211.654 40.7866 211.224 41.3372 210.715 41.7184C210.206 42.1056 209.654 42.3294 209.139 42.4928C208.678 42.638 208.23 42.7167 207.806 42.7711C206.369 42.9284 205 43.1947 204.684 43.9933C204.618 44.1204 204.551 44.2777 204.569 44.4471C204.569 44.5136 204.539 44.7315 204.545 45.0703C204.581 45.3607 204.581 45.5422 204.787 45.754C204.981 45.9536 205.278 46.1715 205.612 46.2743C205.763 46.3409 205.909 46.3832 206.036 46.4135C206.157 46.4437 206.248 46.474 206.297 46.4861C207.315 46.7644 208.509 46.7341 209.654 46.5466C209.818 46.5224 209.987 46.4619 210.151 46.474C210.533 46.5103 210.884 46.3832 211.224 46.2501C211.709 46.0867 212.175 45.875 212.66 45.6814C212.89 45.5725 213.151 45.518 213.405 45.4454C213.636 45.3789 213.654 45.633 213.593 45.6935C213.424 45.875 213.648 45.8689 213.715 45.9294C213.739 45.9536 213.769 45.9839 213.769 46.0081C213.769 46.0262 213.618 46.1533 213.375 46.353C213.139 46.5587 212.787 46.7886 212.43 47.0185C212.072 47.2605 211.672 47.4481 211.357 47.6175C211.03 47.7688 210.775 47.8656 210.69 47.8958C210.672 47.9019 210.375 48.0108 209.915 48.1257C209.46 48.2528 208.842 48.3799 208.187 48.4404C207.86 48.4767 207.533 48.5009 207.206 48.4948C206.884 48.5069 206.575 48.4827 206.29 48.4525C206.012 48.4404 205.757 48.3799 205.563 48.3375C205.363 48.3012 205.218 48.271 205.145 48.2407C204.83 48.1439 204.533 48.0108 204.242 47.8051C204.212 47.7809 203.921 47.6599 203.539 47.3271C203.339 47.194 203.157 46.9278 202.963 46.6736C202.866 46.5466 202.812 46.3772 202.733 46.2199C202.66 46.0565 202.594 45.8931 202.575 45.7177C202.545 45.5483 202.521 45.3728 202.503 45.1973C202.497 45.04 202.503 44.919 202.503 44.7799C202.503 44.5136 202.539 44.2474 202.588 44.0175C202.672 43.5516 202.836 43.2189 202.854 43.1765C203.084 42.6985 203.442 42.2508 203.86 41.9362C204.278 41.6215 204.733 41.434 205.163 41.3493C205.333 41.313 205.497 41.2585 205.66 41.2101C207.018 40.8168 208.296 40.7745 209.199 40.3389C209.66 40.121 209.933 39.8064 210.109 39.3889C210.145 39.3163 210.193 39.2437 210.224 39.159L210.296 38.9896C210.327 38.8989 210.357 38.8081 210.393 38.7234C210.702 37.8158 211.175 37.1382 211.708 36.4726C212.242 35.8192 212.848 35.2262 213.533 34.6878C213.684 34.5607 214.193 34.2582 214.757 34.0464C215.321 33.8226 215.945 33.7257 216.187 33.6955C216.327 33.6834 216.624 33.6955 216.908 33.7681C217.193 33.8528 217.46 33.9254 217.581 33.9315V33.9557Z" fill="#231F20"/>
<path d="M212.174 48.3196C210.616 49.2937 208.877 49.7536 207.114 49.8504C206.235 49.8806 205.338 49.8443 204.398 49.5599C203.495 49.2695 202.629 48.7794 201.968 48.005C201.489 47.4484 201.126 46.7223 201.023 45.9539C200.92 45.1976 201.089 44.3929 201.344 43.8181C201.938 42.1542 203.332 40.7566 204.914 40.1031C205.701 39.7583 206.52 39.5344 207.344 39.4073C207.756 39.3529 208.168 39.3105 208.58 39.2924H209.198C209.465 39.2924 209.453 39.2924 209.556 39.3045C209.61 39.3105 209.665 39.3166 209.72 39.3287L209.804 39.3408C209.835 39.3408 209.841 39.3045 209.853 39.2803C209.883 39.1774 209.901 39.0685 209.926 38.9596L209.986 38.6813L210.077 38.282C210.144 38.0157 210.216 37.7495 210.301 37.4894C210.604 36.5576 211.047 35.6319 211.732 34.8635C212.404 34.083 213.313 33.5142 214.259 33.1996C214.865 33.0121 215.519 32.885 216.186 32.9092C216.847 32.9334 217.507 33.0786 218.107 33.369C218.707 33.6655 219.216 34.1435 219.568 34.7001C219.919 35.2628 220.083 35.9102 220.095 36.5273C220.053 37.3018 219.98 37.1626 219.768 36.5818C219.628 36.3035 219.44 35.9102 219.083 35.5835C218.744 35.2507 218.289 35.0026 217.792 34.8453C217.065 34.5368 216.198 34.4581 215.447 34.6699C214.616 34.924 213.859 35.2265 213.289 35.7952C212.707 36.3398 212.295 37.1021 212.01 37.9613C211.938 38.1731 211.877 38.403 211.822 38.6268L211.744 38.9778L211.707 39.1593L211.647 39.4981C211.568 39.9761 211.465 40.4783 211.204 40.7505C211.144 40.8231 211.077 40.9018 210.968 40.926C210.919 41.0107 210.81 41.0047 210.732 41.047C210.592 41.1378 210.307 41.0894 210.089 41.1015C209.944 41.0773 209.804 41.0591 209.665 41.047C209.592 41.041 209.526 41.0349 209.459 41.0349L209.295 41.0228C209.162 41.0107 209.023 41.0107 208.883 41.0047C208.61 40.9926 208.332 41.0047 208.053 41.0107C206.75 41.0773 205.423 41.4826 204.441 42.2813C203.95 42.6746 203.532 43.1586 203.247 43.7273C203.077 43.9936 202.974 44.3021 202.865 44.6047C202.738 44.9132 202.714 45.1673 202.683 45.4457C202.671 46.0326 202.889 46.5952 203.344 47.049C203.786 47.5028 204.417 47.8477 205.083 48.0171C205.732 48.1865 206.526 48.2107 207.259 48.1623C208.004 48.1078 208.756 47.9626 209.471 47.7267C209.992 47.5573 210.501 47.3394 210.968 47.0672C211.204 46.9341 211.435 46.7889 211.647 46.6255C211.75 46.5408 211.865 46.4682 211.962 46.3774L212.126 46.2322C212.216 46.1475 212.289 46.0749 212.368 45.9902C212.598 45.851 212.792 45.5606 213.089 45.6514C213.368 45.6877 213.659 45.8147 213.938 45.9236L215.059 46.3714C216.434 46.9038 217.853 47.3394 219.283 47.5089C220.695 47.6843 222.18 47.5573 223.271 46.801C223.695 46.5105 224.04 46.1354 224.313 45.6998C224.446 45.488 224.568 45.246 224.659 45.0161L224.762 44.6894C224.798 44.5805 224.792 44.4655 224.81 44.3566C224.84 43.9089 224.737 43.4672 224.525 43.0618C224.301 42.6564 223.974 42.3055 223.598 42.009C223.265 41.7489 222.883 41.5734 222.489 41.41C221.75 41.1196 221.222 41.0954 220.853 40.9684C220.477 40.8836 220.234 40.7445 220.004 40.569C219.901 40.4843 219.762 40.4178 219.689 40.3391C219.562 40.2121 219.671 40.0547 220.016 39.8248C220.186 39.6917 220.428 39.6191 220.731 39.5526C220.883 39.5102 221.046 39.486 221.222 39.48C221.398 39.48 221.598 39.4436 221.798 39.4739C222.992 39.601 224.204 40.0668 225.149 40.9744C225.628 41.4161 226.034 41.9727 226.295 42.6383C226.561 43.2917 226.677 44.0662 226.531 44.8043L226.483 45.0826L226.398 45.3489C226.337 45.5183 226.277 45.7119 226.204 45.8631C226.071 46.1536 225.907 46.4379 225.725 46.7162C225.355 47.2668 224.871 47.7751 224.307 48.1744C223.168 48.9791 221.804 49.2635 220.574 49.2816C218.998 49.3058 217.537 48.9731 216.156 48.5495C215.465 48.3317 214.786 48.0957 214.125 47.8416L213.319 47.527C213.319 47.527 213.295 47.5089 213.283 47.527H213.277C213.313 47.4968 213.235 47.5694 213.186 47.6117C213.083 47.7085 212.974 47.8053 212.865 47.884C212.647 48.0594 212.422 48.2228 212.186 48.368L212.162 48.3378L212.174 48.3196Z" fill="#231F20"/>
<rect x="214.586" y="81.416" width="88.5856" height="88.5856" rx="44.2928" fill="#FFEAEB"/>
<rect x="214.586" y="81.416" width="88.5856" height="88.5856" rx="44.2928" stroke="#E5E5E5" stroke-width="0.843672"/>
<path d="M284.489 117.287C274.529 116.138 276.846 105.061 284.742 106.058C284.742 106.058 281.416 103.647 278.777 104.739C276.139 105.831 274.302 107.958 273.999 109.441C273.696 110.924 273.69 114.85 275.666 116.491C277.641 118.132 280.835 118.65 280.835 118.65L284.496 117.293L284.489 117.287Z" fill="black"/>
<path d="M262.432 103.962C254.447 105.187 255.003 95.1701 260.235 95.877C260.235 95.877 257.818 93.4596 255.009 95.1764C252.2 96.8932 251.159 100.592 252.358 103.123C253.551 105.648 256.069 106.683 256.839 106.392C257.609 106.102 262.438 103.969 262.438 103.969L262.432 103.962Z" fill="black"/>
<path d="M239.076 119.42C233.067 118.934 234.146 113.108 236.286 111.833C236.286 111.833 233.761 110.52 231.287 112.654C228.813 114.781 228.832 117.678 229.886 119.294C230.94 120.909 232.423 122.191 234.032 122.058C235.642 121.926 239.076 119.42 239.076 119.42Z" fill="black"/>
<path d="M238.282 138.088C233.713 138.795 234.243 134.219 234.483 133.701C234.483 133.701 231.718 133.108 230.721 135.822C229.717 138.536 230.98 140.802 232.356 141.351C233.732 141.9 235.354 141.856 236.483 141.351C237.613 140.846 238.289 138.088 238.289 138.088H238.282Z" fill="black"/>
<path d="M255.471 153.068C251.734 152.91 252.315 150.007 252.378 149.811C252.378 149.811 249.664 149.168 249.089 151.806C248.515 154.444 249.645 156.609 251.204 156.622C252.763 156.634 254.783 156.78 255.464 155.763C256.146 154.747 255.464 153.062 255.464 153.062L255.471 153.068Z" fill="black"/>
<path d="M275.695 145.431C275.632 145.69 275.537 147.451 278.743 146.958C278.743 146.958 279.968 150.032 277.702 150.789C275.436 151.547 272.936 150.089 273.208 148.454C273.479 146.819 273.637 145.772 274.666 145.431C275.695 145.09 275.695 145.431 275.695 145.431Z" fill="black"/>
<path d="M284.016 131.43C284.016 131.43 285.051 130.067 286.112 130.774C287.172 131.481 288.144 132.692 287.563 133.563C286.989 134.434 285.525 134.876 284.755 134.554C283.985 134.232 283.12 133.014 284.01 131.43H284.016Z" fill="black"/>
<path d="M262.394 102.782C263.297 101.45 263.328 99.5188 262.476 97.9661C262.167 97.3981 261.719 96.9247 261.239 96.5144C260.381 95.776 259.257 95.2963 258.083 95.2142C256.909 95.1259 255.685 95.4288 254.694 96.1105C253.81 96.7101 253.167 97.6379 252.8 98.6541C252.542 99.2979 252.409 99.9985 252.365 100.686C252.34 101.387 252.359 102.044 252.352 102.82C252.453 103.268 252.434 103.236 252.144 102.921C252.068 102.839 251.974 102.75 251.841 102.637C251.664 102.542 251.601 102.378 251.462 102.22C251.336 102.056 251.204 101.867 251.115 101.652C251.04 101.438 251.008 101.198 250.976 100.952C250.92 100.074 251.021 99.2032 251.26 98.3575C251.513 97.518 251.936 96.7227 252.51 96.0221C253.671 94.6083 255.414 93.7499 257.181 93.6678C259.276 93.529 261.517 94.217 263.032 95.7949C264.66 97.5054 265.367 100.055 264.685 102.346C264.263 103.754 263.366 104.947 262.218 105.793C260.469 107.093 258.165 107.421 256.127 106.935C255.331 106.746 254.561 106.449 253.842 106.02C253.129 105.591 252.466 105.016 251.993 104.297L251.702 103.811C251.62 103.647 251.544 103.47 251.469 103.3C250.995 101.968 251.248 101.488 251.62 101.185C251.709 101.116 251.797 101.027 251.885 100.983C252.188 100.844 252.516 101.318 252.87 102.025C253.135 102.548 253.47 103.003 253.848 103.375C254.195 103.773 254.606 104.101 255.066 104.366C255.988 104.903 257.118 105.161 258.222 105.086C259.043 105.029 259.844 104.808 260.564 104.423C261.283 104.038 261.896 103.464 262.331 102.757L262.375 102.782H262.394Z" fill="black"/>
<path d="M285.8 114.478C286.76 112.837 286.741 110.577 285.8 108.753C285.459 108.084 284.961 107.516 284.418 107.03C283.452 106.153 282.171 105.585 280.833 105.515C279.495 105.433 278.113 105.856 277.027 106.708C276.049 107.44 275.392 108.583 275.007 109.763C274.742 110.52 274.61 111.322 274.572 112.123C274.553 112.931 274.584 113.695 274.591 114.579C274.698 115.096 274.679 115.046 274.37 114.68C274.294 114.585 274.18 114.478 274.048 114.352C273.865 114.232 273.789 114.055 273.644 113.872C273.511 113.682 273.366 113.468 273.278 113.228C273.189 112.982 273.158 112.723 273.126 112.445C273.051 111.467 273.152 110.489 273.385 109.536C273.638 108.589 274.073 107.68 274.654 106.86C275.847 105.187 277.778 104.095 279.792 103.918C282.184 103.685 284.753 104.549 286.394 106.392C288.167 108.387 288.88 111.215 288.243 113.79C287.852 115.38 286.93 116.8 285.693 117.836C283.806 119.426 281.18 119.95 278.82 119.325C277.014 118.801 275.386 117.722 274.313 116.125C274.098 115.765 273.884 115.412 273.739 115.014C273.183 113.537 273.436 112.982 273.821 112.635C273.915 112.553 274.004 112.452 274.092 112.408C274.401 112.25 274.761 112.78 275.165 113.594C275.468 114.2 275.859 114.743 276.301 115.21C276.705 115.702 277.178 116.131 277.702 116.485C278.226 116.832 278.801 117.122 279.381 117.274C279.924 117.425 280.574 117.47 281.199 117.419C282.121 117.318 283.042 117.047 283.831 116.542C284.633 116.043 285.302 115.324 285.762 114.471L285.807 114.49L285.8 114.478Z" fill="black"/>
<path d="M238.598 118.372C239.166 117.097 238.97 115.418 238.099 114.137C237.783 113.67 237.348 113.304 236.906 112.982C236.111 112.414 235.095 112.105 234.085 112.174C233.075 112.237 232.071 112.673 231.327 113.417C230.658 114.061 230.273 114.989 230.102 115.929C229.976 116.529 229.957 117.154 230.007 117.766C230.077 118.378 230.165 118.953 230.209 119.653C230.329 120.045 230.31 120.013 230.014 119.78C229.881 119.653 229.534 119.527 229.294 119.256C229.162 119.123 229.004 118.978 228.897 118.801C228.796 118.618 228.732 118.416 228.676 118.202C228.505 117.438 228.467 116.655 228.549 115.873C228.644 115.096 228.897 114.333 229.275 113.613C230.052 112.155 231.484 111.095 233.069 110.76C234.943 110.344 237.058 110.741 238.554 112.029C240.163 113.424 241.021 115.576 240.769 117.684C240.611 118.984 240.024 120.184 239.147 121.124C237.815 122.569 235.776 123.207 233.889 122.986C232.444 122.822 230.929 122.229 229.925 121.017C229.711 120.752 229.521 120.48 229.364 120.177C228.821 119.041 228.998 118.587 229.345 118.265C229.427 118.189 229.502 118.101 229.585 118.05C229.862 117.886 230.247 118.258 230.658 118.827C230.961 119.249 231.301 119.609 231.674 119.893C232.015 120.203 232.387 120.442 232.797 120.619C233.618 120.985 234.59 121.086 235.486 120.89C236.811 120.6 238.036 119.71 238.566 118.353L238.61 118.366L238.598 118.372Z" fill="black"/>
<path d="M237.883 138.159C238.179 137.137 237.838 135.868 236.993 134.997C236.683 134.681 236.298 134.46 235.913 134.277C235.219 133.943 234.392 133.836 233.61 134.019C232.821 134.189 232.088 134.65 231.583 135.319C231.135 135.906 230.933 136.67 230.921 137.433C230.896 137.919 230.959 138.412 231.079 138.885C231.211 139.358 231.35 139.788 231.451 140.362C231.596 140.665 231.577 140.646 231.293 140.507C231.167 140.431 230.845 140.393 230.599 140.217C230.466 140.135 230.309 140.04 230.189 139.914C230.075 139.781 229.999 139.623 229.917 139.459C229.671 138.86 229.526 138.229 229.488 137.585C229.463 136.941 229.57 136.284 229.791 135.647C230.258 134.359 231.293 133.324 232.537 132.857C234.001 132.283 235.756 132.283 237.163 133.103C238.678 133.987 239.694 135.622 239.751 137.376C239.782 138.456 239.454 139.503 238.855 140.374C237.952 141.706 236.393 142.47 234.847 142.571C233.66 142.647 232.347 142.426 231.344 141.593C231.129 141.41 230.933 141.22 230.763 140.993C230.151 140.147 230.252 139.743 230.529 139.415C230.593 139.339 230.656 139.251 230.725 139.201C230.959 139.017 231.35 139.245 231.767 139.617C232.069 139.895 232.398 140.109 232.726 140.255C233.029 140.431 233.344 140.551 233.685 140.627C234.361 140.778 235.112 140.722 235.774 140.45C236.753 140.053 237.592 139.257 237.845 138.159H237.889H237.883Z" fill="black"/>
<path d="M255.226 154.001C255.605 153.206 255.517 152.095 254.961 151.231C254.759 150.915 254.475 150.675 254.191 150.46C253.68 150.069 253.017 149.848 252.348 149.874C251.679 149.899 251.004 150.183 250.499 150.681C250.044 151.111 249.792 151.748 249.685 152.392C249.603 152.802 249.59 153.231 249.622 153.648C249.666 154.071 249.71 154.45 249.678 154.973C249.741 155.257 249.729 155.238 249.495 155.087C249.394 155.005 249.098 154.936 248.896 154.752C248.782 154.664 248.65 154.563 248.561 154.437C248.479 154.304 248.429 154.159 248.384 154.001C248.246 153.446 248.208 152.878 248.252 152.31C248.309 151.742 248.492 151.186 248.763 150.656C249.325 149.571 250.385 148.782 251.559 148.548C252.941 148.258 254.494 148.542 255.58 149.495C256.747 150.524 257.347 152.089 257.17 153.623C257.057 154.569 256.634 155.447 256.003 156.135C255.043 157.195 253.554 157.656 252.184 157.492C251.136 157.372 250.019 156.955 249.281 156.065C249.123 155.87 248.984 155.674 248.87 155.447C248.485 154.614 248.65 154.279 248.984 154.027C249.066 153.97 249.136 153.9 249.218 153.863C249.476 153.736 249.823 153.976 250.133 154.342C250.36 154.614 250.612 154.835 250.865 154.999C251.092 155.182 251.326 155.321 251.584 155.428C252.102 155.636 252.695 155.699 253.251 155.573C254.059 155.384 254.835 154.872 255.188 153.995L255.233 154.008L255.226 154.001Z" fill="black"/>
<path d="M277.795 148.858C278.085 148.303 278.048 147.476 277.656 146.819C277.511 146.579 277.303 146.403 277.101 146.239C276.741 145.936 276.261 145.753 275.763 145.759C275.264 145.759 274.759 145.974 274.374 146.352C274.033 146.674 273.844 147.173 273.768 147.665C273.705 147.981 273.699 148.315 273.718 148.637C273.749 148.965 273.775 149.249 273.686 149.685C273.718 149.918 273.711 149.906 273.503 149.792C273.415 149.729 273.137 149.697 272.948 149.552C272.847 149.483 272.714 149.407 272.638 149.306C272.563 149.199 272.519 149.079 272.474 148.953C272.348 148.498 272.31 148.031 272.336 147.564C272.373 147.097 272.519 146.636 272.739 146.188C273.188 145.273 274.078 144.598 275.062 144.408C276.224 144.175 277.511 144.408 278.407 145.216C279.36 146.087 279.834 147.362 279.689 148.618C279.6 149.401 279.259 150.12 278.748 150.695C277.972 151.585 276.735 151.97 275.611 151.825C274.747 151.73 273.819 151.383 273.2 150.644C273.074 150.48 272.954 150.316 272.866 150.133C272.556 149.439 272.721 149.161 273.068 148.94C273.15 148.89 273.225 148.833 273.308 148.795C273.566 148.681 273.907 148.864 274.179 149.123C274.374 149.319 274.582 149.47 274.784 149.565C274.955 149.685 275.119 149.773 275.296 149.836C275.649 149.963 276.047 150 276.413 149.918C276.937 149.786 277.486 149.47 277.745 148.845L277.789 148.858H277.795Z" fill="black"/>
<path d="M286.712 133.261C286.914 132.927 286.914 132.384 286.655 131.942C286.56 131.784 286.415 131.671 286.283 131.563C285.809 131.141 284.957 131.09 284.408 131.601C284.168 131.81 284.029 132.144 283.973 132.485C283.922 132.7 283.916 132.927 283.928 133.148C283.954 133.369 283.96 133.564 283.878 133.88C283.897 134.044 283.89 134.038 283.733 133.968C283.67 133.93 283.455 133.911 283.31 133.81C283.234 133.766 283.133 133.709 283.07 133.64C283.013 133.564 282.975 133.476 282.95 133.387C282.862 133.059 282.83 132.725 282.849 132.384C282.881 132.043 282.994 131.715 283.165 131.399C283.518 130.749 284.162 130.288 284.869 130.169C285.696 130.017 286.611 130.169 287.261 130.73C287.955 131.342 288.309 132.264 288.189 133.173C288.113 133.735 287.854 134.246 287.476 134.644C286.901 135.262 286.03 135.508 285.229 135.42C284.623 135.357 283.941 135.148 283.48 134.618C283.386 134.505 283.297 134.385 283.234 134.252C283.001 133.754 283.133 133.545 283.411 133.381C283.474 133.343 283.537 133.299 283.6 133.274C283.808 133.192 284.067 133.312 284.269 133.476C284.414 133.602 284.566 133.684 284.698 133.735C284.812 133.804 284.926 133.848 285.039 133.88C285.273 133.949 285.532 133.968 285.778 133.911C286.125 133.823 286.485 133.646 286.668 133.249L286.699 133.261H286.712Z" fill="black"/>
<rect x="28.9765" y="18.1406" width="88.5856" height="88.5856" rx="44.2928" fill="white"/>
<rect x="28.9765" y="18.1406" width="88.5856" height="88.5856" rx="44.2928" stroke="#E5E5E5" stroke-width="0.843672"/>
<path d="M77.0675 68.2475C67.1076 67.0988 69.424 56.0217 77.32 57.019C77.32 57.019 73.9937 54.6079 71.3554 55.6998C68.7171 56.7917 66.8804 58.9188 66.5774 60.402C66.2745 61.8853 66.2682 65.8112 68.2437 67.4522C70.2193 69.0933 73.413 69.6109 73.413 69.6109L77.0738 68.2538L77.0675 68.2475Z" fill="black"/>
<path d="M78.3784 65.4387C79.3378 63.7977 79.3189 61.5381 78.3784 59.714C78.0376 59.0449 77.539 58.4769 76.9962 57.9909C76.0305 57.1135 74.7492 56.5455 73.4111 56.4761C72.073 56.394 70.6908 56.8169 69.6051 57.669C68.6268 58.4011 67.9704 59.5436 67.5854 60.7238C67.3203 61.4813 67.1877 62.2828 67.1499 63.0844C67.1309 63.8923 67.1625 64.6561 67.1688 65.5397C67.2761 66.0573 67.2572 66.0068 66.9479 65.6407C66.8722 65.546 66.7585 65.4387 66.626 65.3125C66.443 65.1925 66.3672 65.0158 66.222 64.8328C66.0895 64.6434 65.9443 64.4288 65.856 64.189C65.7676 63.9428 65.736 63.684 65.7045 63.4063C65.6287 62.428 65.7297 61.4497 65.9633 60.4966C66.2157 59.5499 66.6512 58.641 67.2319 57.8205C68.4248 56.1478 70.3562 55.0559 72.3697 54.8792C74.7618 54.6457 77.3307 55.5104 78.9717 57.3534C80.7453 59.3479 81.4586 62.1755 80.8211 64.7507C80.4297 66.3413 79.5082 67.7614 78.2711 68.7965C76.3839 70.3871 73.7582 70.911 71.3977 70.2861C69.5925 69.7622 67.9641 68.6829 66.8911 67.0861C66.6765 66.7263 66.4619 66.3728 66.3167 65.9752C65.7613 64.4983 66.0138 63.9428 66.3988 63.5957C66.4935 63.5136 66.5818 63.4126 66.6702 63.3685C66.9795 63.2107 67.3392 63.7409 67.7432 64.5551C68.0461 65.161 68.4375 65.7038 68.8793 66.1709C69.2832 66.6632 69.7566 67.0924 70.2805 67.4458C70.8044 67.793 71.3787 68.0833 71.9594 68.2348C72.5022 68.3863 73.1523 68.4305 73.7772 68.38C74.6987 68.279 75.6202 68.0076 76.4092 67.5026C77.2108 67.004 77.8798 66.2845 78.3406 65.4324L78.3847 65.4513L78.3784 65.4387Z" fill="black"/>
<path d="M140.964 117.354C140.968 117.265 140.957 117.176 140.933 117.091C140.849 116.839 140.723 116.602 140.561 116.392C140.432 116.223 140.301 116.064 140.17 115.922C139.903 115.645 139.618 115.386 139.316 115.147C139.016 114.909 138.703 114.689 138.376 114.489C138.209 114.385 138.036 114.289 137.859 114.203C137.767 114.156 137.672 114.114 137.576 114.077C137.472 114.039 137.364 114.015 137.254 114.005C137.203 113.999 137.152 114.003 137.102 114.017C136.905 114.094 136.77 114.901 136.818 115.051C136.831 115.082 136.851 115.108 136.877 115.128C136.928 115.161 136.978 115.244 137.04 115.267C137.107 115.297 137.171 115.333 137.233 115.373C137.361 115.446 137.489 115.538 137.627 115.627C137.886 115.816 138.132 116.021 138.364 116.241C138.597 116.459 138.816 116.691 139.021 116.936C139.119 117.046 139.21 117.163 139.294 117.284C139.328 117.333 139.359 117.383 139.387 117.435C139.41 117.472 139.419 117.533 139.43 117.504C139.552 117.463 139.73 117.453 139.776 117.427C139.828 117.414 139.882 117.414 139.934 117.427L140.205 117.487C140.367 117.531 140.536 117.547 140.703 117.534C140.833 117.541 140.952 117.468 140.964 117.354Z" fill="#242021"/>
<path d="M133.534 112.17C133.463 112.123 133.399 112.068 133.326 112.029C132.65 111.698 131.937 111.449 131.202 111.287C130.501 111.127 129.789 111.018 129.071 110.962C128.359 110.896 127.643 110.873 126.927 110.895C126.569 110.906 126.209 110.925 125.843 110.969C125.664 110.984 125.476 111.018 125.293 111.05C125.105 111.09 124.921 111.149 124.745 111.225C124.662 111.256 124.584 111.3 124.513 111.353C124.267 111.569 124.625 112.309 124.849 112.373C124.912 112.38 124.975 112.381 125.038 112.374C125.194 112.364 125.341 112.37 125.494 112.35C125.648 112.33 125.805 112.311 125.955 112.304C126.278 112.277 126.602 112.268 126.926 112.276C127.585 112.282 128.242 112.331 128.895 112.421C129.543 112.501 130.186 112.624 130.818 112.79C131.423 112.933 132.009 113.146 132.564 113.426C132.62 113.438 132.671 113.472 132.728 113.498C132.974 113.49 133.74 112.418 133.534 112.17Z" fill="#242021"/>
<path d="M120.35 111.981C120.301 111.979 120.253 111.98 120.205 111.984C119.292 112.144 118.416 112.466 117.618 112.935C117.225 113.163 116.849 113.417 116.492 113.697C116.317 113.838 116.145 113.98 115.977 114.127C115.799 114.262 115.649 114.43 115.533 114.622C115.501 114.661 115.478 114.707 115.468 114.756C115.424 114.953 116.009 115.542 116.195 115.539C116.241 115.531 116.286 115.515 116.327 115.491C116.419 115.448 116.508 115.398 116.594 115.344L116.825 115.157C116.983 115.034 117.142 114.926 117.303 114.813C117.623 114.595 117.958 114.4 118.307 114.231C118.985 113.898 119.709 113.667 120.456 113.547C120.494 113.539 120.532 113.526 120.568 113.509C120.704 113.382 120.544 112.078 120.35 111.981Z" fill="#242021"/>
<path d="M112.32 117.256C112.284 117.268 112.249 117.283 112.216 117.3L110.417 118.534L109.512 119.138L109.054 119.433L108.828 119.58C108.753 119.638 108.684 119.702 108.622 119.773C108.592 119.804 108.567 119.839 108.549 119.878C108.607 120.244 108.795 120.577 109.08 120.815C109.124 120.82 109.17 120.816 109.213 120.804C109.307 120.787 109.4 120.759 109.488 120.721L109.733 120.591L110.242 120.331L111.215 119.787C111.865 119.418 112.498 119.028 113.12 118.622C113.151 118.599 113.178 118.572 113.201 118.541C113.025 118.043 112.721 117.6 112.32 117.256Z" fill="#242021"/>
<path d="M104.231 121.175C104.19 121.18 104.15 121.191 104.111 121.206C103.387 121.545 102.688 121.889 101.993 122.198C101.647 122.355 101.296 122.493 100.945 122.613C100.77 122.673 100.596 122.724 100.418 122.775C100.332 122.796 100.245 122.822 100.156 122.838C100.067 122.854 99.9884 122.922 99.9006 122.952C99.861 122.966 99.8251 122.989 99.7956 123.019C99.682 123.165 99.7523 123.981 99.9269 124.087C99.9719 124.106 100.02 124.117 100.069 124.119C100.287 124.15 100.51 124.135 100.723 124.075C100.93 124.036 101.139 123.988 101.345 123.935C101.752 123.827 102.15 123.7 102.536 123.565C103.318 123.289 104.048 122.965 104.768 122.648C104.805 122.627 104.84 122.603 104.874 122.577C104.957 122.425 104.412 121.215 104.231 121.175Z" fill="#242021"/>
<path d="M95.25 123.015C95.1894 122.998 95.1278 122.984 95.0653 122.974C93.8414 122.939 92.628 122.737 91.4584 122.375C90.8672 122.195 90.2905 121.971 89.7332 121.704C89.1469 121.484 88.6685 121.063 88.0468 120.88C87.9824 120.854 87.9142 120.839 87.845 120.835C87.5811 120.826 87.1186 121.506 87.2612 121.735C87.3026 121.795 87.3533 121.847 87.4114 121.89C87.5321 122.001 87.6595 122.105 87.793 122.2L88.2424 122.448C88.525 122.633 88.8188 122.801 89.1221 122.95C89.7239 123.268 90.3481 123.542 90.9898 123.77C92.2818 124.24 93.6394 124.507 95.0138 124.56C95.0844 124.56 95.1548 124.554 95.2247 124.544C95.4914 124.459 95.4675 123.131 95.25 123.015Z" fill="#242021"/>
<path d="M84.2279 117.66C84.2085 117.636 84.1861 117.614 84.1611 117.596C83.7957 117.34 83.4488 117.058 83.1231 116.753C82.7744 116.437 82.4224 116.116 82.0861 115.785C81.7499 115.454 81.4164 115.11 81.1074 114.758C80.9567 114.585 80.7983 114.405 80.6705 114.211C80.6009 114.119 80.5346 114.032 80.4769 113.947C80.4476 113.902 80.4109 113.861 80.3681 113.828L80.2727 113.731C80.2384 113.723 80.2222 113.674 80.1902 113.676C80.0542 113.7 79.1968 113.645 79.1657 114.007C79.1646 114.051 79.1668 114.095 79.1723 114.139L79.2004 114.235C79.235 114.383 79.2897 114.525 79.363 114.658C79.4345 114.782 79.5099 114.888 79.5852 114.995C79.7331 115.222 79.8876 115.418 80.0455 115.619C80.3569 116.022 80.687 116.401 81.0223 116.777C81.3576 117.153 81.7053 117.513 82.0678 117.868C82.4485 118.237 82.8539 118.58 83.2813 118.894C83.342 118.931 83.406 118.961 83.4726 118.986C83.7742 119.048 84.2302 117.791 84.2279 117.66Z" fill="#242021"/>
<path d="M162.116 145.426C162.122 145.473 162.131 145.519 162.142 145.564C162.436 146.307 162.872 146.985 163.425 147.561C163.682 147.844 163.956 148.11 164.246 148.358C164.394 148.485 164.539 148.607 164.694 148.718C164.839 148.85 165.011 148.947 165.199 149.003C165.24 149.021 165.285 149.028 165.329 149.025C165.628 148.807 165.84 148.491 165.926 148.132C165.916 148.094 165.897 148.059 165.871 148.029C165.819 147.967 165.786 147.876 165.718 147.829C165.65 147.782 165.596 147.729 165.534 147.674C165.414 147.569 165.299 147.452 165.185 147.339C164.955 147.11 164.741 146.866 164.545 146.609C164.16 146.13 163.853 145.595 163.634 145.022C163.621 144.997 163.606 144.973 163.588 144.952C163.464 144.918 162.171 145.235 162.116 145.426Z" fill="#242021"/>
<path d="M168.561 152.421C168.621 152.489 168.675 152.561 168.737 152.62C169.361 153.214 170.032 153.756 170.743 154.243C171.454 154.717 172.199 155.14 172.97 155.508C173.743 155.879 174.544 156.189 175.366 156.435C175.791 156.559 176.193 156.662 176.62 156.747C176.833 156.783 177.054 156.82 177.262 156.855C177.483 156.875 177.704 156.879 177.925 156.868C178.02 156.867 178.115 156.854 178.208 156.831C178.538 156.722 178.525 155.9 178.264 155.754C178.187 155.723 178.107 155.701 178.025 155.687C177.656 155.576 177.282 155.518 176.904 155.432C176.526 155.347 176.152 155.235 175.785 155.111C175.043 154.862 174.322 154.553 173.629 154.189C172.938 153.823 172.271 153.414 171.632 152.963C170.997 152.514 170.4 152.014 169.845 151.47C169.787 151.416 169.719 151.369 169.656 151.318C169.38 151.209 168.415 152.121 168.561 152.421Z" fill="#242021"/>
<path d="M182.726 157.039C182.767 157.057 182.809 157.072 182.853 157.082C183.688 157.227 184.538 157.263 185.382 157.19C185.805 157.167 186.227 157.12 186.645 157.05C186.848 157.013 187.056 156.968 187.257 156.917C187.466 156.885 187.667 156.811 187.846 156.699C187.89 156.68 187.928 156.652 187.959 156.616C188.008 156.247 187.911 155.874 187.687 155.577C187.647 155.562 187.604 155.554 187.561 155.556C187.465 155.549 187.368 155.549 187.271 155.556L186.999 155.609C186.816 155.64 186.633 155.663 186.448 155.681C186.081 155.727 185.712 155.75 185.343 155.75C184.614 155.751 183.886 155.684 183.169 155.55C183.131 155.541 183.094 155.535 183.056 155.531C182.874 155.607 182.594 156.901 182.726 157.039Z" fill="#242021"/>
<path d="M191.511 156.181C191.548 156.189 191.586 156.196 191.624 156.2C192.369 156.215 193.114 156.137 193.84 155.966C194.202 155.879 194.558 155.771 194.907 155.642C195.084 155.579 195.256 155.51 195.424 155.434C195.607 155.376 195.776 155.278 195.918 155.148C195.954 155.124 195.982 155.09 195.997 155.049C195.961 154.684 195.8 154.342 195.54 154.082C195.504 154.067 195.465 154.06 195.427 154.063C195.342 154.066 195.258 154.078 195.176 154.097C195.104 154.129 195.028 154.152 194.952 154.18C194.8 154.234 194.65 154.28 194.483 154.319C194.179 154.403 193.87 154.469 193.558 154.516C192.934 154.603 192.303 154.633 191.674 154.605C191.639 154.606 191.605 154.613 191.572 154.624C191.426 155.13 191.405 155.665 191.511 156.181Z" fill="#242021"/>
<path d="M198.859 153.988C198.895 153.989 198.932 153.987 198.967 153.979C199.618 153.802 200.241 153.534 200.818 153.185C201.105 153.015 201.382 152.83 201.648 152.629C201.781 152.527 201.91 152.424 202.039 152.317L202.228 152.152C202.284 152.086 202.332 152.013 202.371 151.936C202.395 151.904 202.409 151.866 202.412 151.827C202.258 151.492 202.004 151.215 201.684 151.032C201.65 151.027 201.614 151.034 201.583 151.051C201.445 151.094 201.318 151.166 201.209 151.26C201.098 151.339 200.977 151.417 200.858 151.49C200.62 151.637 200.375 151.77 200.122 151.888C199.622 152.124 199.101 152.311 198.565 152.446C198.539 152.442 198.516 152.474 198.487 152.487C198.504 153.007 198.631 153.519 198.859 153.988Z" fill="#242021"/>
<path d="M165.436 143.253L165.285 143.299C164.795 143.454 164.329 143.675 163.899 143.957C163.469 144.227 163.068 144.54 162.702 144.892C161.992 145.589 161.354 146.354 160.797 147.177L160.713 147.306C160.611 147.458 161.121 147.82 161.226 147.672L161.314 147.549C161.868 146.78 162.5 146.069 163.201 145.43C163.549 145.121 163.917 144.836 164.303 144.577C164.689 144.328 165.093 144.107 165.512 143.916L165.645 143.862C165.797 143.785 165.614 143.198 165.436 143.253Z" fill="#242021"/>
<path d="M201.711 148.152C203.292 147.755 204.921 147.682 206.509 147.937C207.081 148.021 207.646 148.137 208.204 148.285C208.581 148.374 209.053 148.672 209.427 148.685L209.543 148.74C209.813 148.905 209.743 148.72 209.34 148.186C209.246 148.394 209.164 148.607 209.093 148.825C208.833 149.382 208.545 149.926 208.231 150.452C207.612 151.538 206.903 152.588 206.381 153.731C205.94 154.684 207.289 155.457 207.723 154.496C208.44 152.936 209.482 151.537 210.236 150.008C210.648 149.185 211.338 147.97 210.401 147.342C209.463 146.715 208.099 146.53 207.055 146.363C205.146 146.034 203.184 146.112 201.281 146.593C200.31 146.849 200.739 148.406 201.702 148.15L201.711 148.152Z" fill="#231F20"/>
</svg>
